<svg width="279" height="77" viewBox="0 0 279 77" fill="none" xmlns="http://www.w3.org/2000/svg">
<path fill-rule="evenodd" clip-rule="evenodd" d="M265.315 45.0667V16.9732H194.667V45.0667H265.315Z" fill="#1A171B"/>
<path d="M265.315 45.0667V16.9732H194.667V45.0667H265.315Z" stroke="#1A171B" stroke-width="1.36858" stroke-miterlimit="22.9256"/>
<path fill-rule="evenodd" clip-rule="evenodd" d="M24.9663 4.95561L24.9921 12.7849C23.2758 12.9933 21.6369 12.2911 20.4141 13.6696C20.1707 14.5501 20.0569 15.4614 20.0761 16.3747L24.9921 16.323V24.6209L20.128 24.6464L20.1542 45.7679L8.76106 45.7421L8.73471 24.6209H4.80713V16.323L8.76106 16.3747C8.63099 12.2128 9.64541 8.77965 12.7667 6.51658C16.3303 4.38372 20.7521 4.74768 24.9663 4.95561Z" fill="#E2001A"/>
<path d="M8.76106 16.3747C8.63099 12.2128 9.64541 8.77965 12.7667 6.51658C16.3303 4.38372 20.752 4.74768 24.9663 4.95561M8.76106 16.3747L24.9663 4.95561M8.76106 16.3747L4.80713 16.323V24.6209H8.73471L8.76106 45.7421L20.1542 45.7679L20.128 24.6464L24.9921 24.6209V16.323L20.0761 16.3747M8.76106 16.3747H20.0761M24.9663 4.95561L24.9921 12.7849M20.0761 16.3747C20.0569 15.4614 20.1707 14.5501 20.4141 13.6696C21.6369 12.2911 23.2758 12.9933 24.9921 12.7849M20.0761 16.3747L19.5 11.5L24.9921 12.7849" stroke="#E2001A" stroke-width="0.0739034" stroke-miterlimit="2.6131"/>
<path fill-rule="evenodd" clip-rule="evenodd" d="M110.78 4.95561V19.1322C113.901 15.9847 118.635 14.5803 123.005 15.881C124.711 16.3639 126.248 17.3138 127.443 18.6236C128.638 19.9334 129.443 21.551 129.768 23.294L130.001 25.9736L129.975 45.7421H118.973C118.973 45.7421 119.024 34.323 118.947 28.7824C118.661 27.4297 118.452 25.8692 117.022 25.1147C115.852 24.4905 114.343 24.6464 113.12 25.1147C112.341 25.6024 111.711 26.2944 111.298 27.1154C110.886 27.9364 110.706 28.8548 110.78 29.7708V45.7421H99.594V4.95561H110.78Z" fill="#E2001A"/>
<path d="M110.78 45.7421H99.594V4.95561H110.78M118.947 28.7824C118.661 27.4297 118.452 25.8692 117.022 25.1147C115.852 24.4905 114.343 24.6464 113.12 25.1147C112.341 25.6024 111.711 26.2944 111.298 27.1154M129.975 45.7421L130.001 25.9736L129.768 23.294C129.443 21.551 128.638 19.9334 127.443 18.6236" stroke="#E2001A" stroke-width="0.0739034" stroke-miterlimit="2.6131"/>
<path fill-rule="evenodd" clip-rule="evenodd" d="M65.3366 20.4069C65.9257 21.7493 66.2776 23.1837 66.3768 24.6464L66.1688 24.8548H56.3363C56.1284 24.2562 56.0505 23.5021 55.66 23.0337C54.4897 21.8118 52.5646 21.8631 51.082 22.2279C50.4056 22.4874 49.5734 23.0337 49.443 23.8664C49.4266 24.068 49.4555 24.2708 49.5276 24.4598C49.5997 24.6488 49.7131 24.8193 49.8595 24.9589C52.3045 26.2335 55.4519 25.9736 58.1312 26.7014C61.7988 27.3778 65.9867 29.6151 67.1571 33.5689C67.964 36.7156 67.3653 40.2015 65.1281 42.5428C60.2122 47.3802 51.8105 47.4851 45.5414 45.5078C42.5242 44.5714 39.2467 41.7101 38.6743 38.4323C38.6226 37.6008 38.3363 36.7941 38.4662 35.9615C41.8996 35.8316 45.6455 35.8841 48.9228 35.9356C49.001 37.1843 49.4172 38.4065 50.5618 39.1609C52.0704 39.9673 54.1773 40.2279 55.6862 39.2131C55.9611 38.9729 56.1821 38.6771 56.3345 38.3453C56.4869 38.0134 56.5673 37.6531 56.5704 37.288C56.5755 36.9529 56.4884 36.6229 56.3186 36.334C56.1489 36.0451 55.903 35.8085 55.6078 35.6499C51.3159 34.0891 46.3222 34.323 42.368 31.93C39.611 30.1611 38.6485 27.0917 38.9346 24.0223C39.1949 20.8747 41.926 17.9357 44.7873 16.7651C49.0792 14.8403 54.1254 15.1782 58.8335 15.9847C61.4348 16.5311 64.0361 17.8053 65.3366 20.4069Z" fill="#E2001A"/>
<path d="M65.3366 20.4069C65.9257 21.7493 66.2776 23.1837 66.3768 24.6464M56.3363 24.8548C56.1284 24.2562 56.0505 23.5021 55.66 23.0337C54.4897 21.8118 52.5646 21.8631 51.082 22.2279C50.4056 22.4874 49.5734 23.0337 49.443 23.8664C49.4266 24.068 49.4555 24.2708 49.5276 24.4598C49.5997 24.6488 49.7131 24.8193 49.8595 24.9589C52.3045 26.2335 55.4519 25.9736 58.1312 26.7014C61.7988 27.3778 65.9867 29.6151 67.1571 33.5689C67.964 36.7156 67.3653 40.2015 65.1281 42.5428C60.2122 47.3802 51.8105 47.4851 45.5414 45.5078C42.5242 44.5714 39.2467 41.7101 38.6743 38.4323C38.6226 37.6008 38.3363 36.7941 38.4662 35.9615C41.8996 35.8316 45.6455 35.8841 48.9228 35.9356C49.001 37.1843 49.4172 38.4065 50.5618 39.1609C52.0704 39.9673 54.1773 40.2279 55.6862 39.2131C55.9611 38.9729 56.1821 38.6771 56.3345 38.3453C56.4869 38.0134 56.5673 37.6531 56.5704 37.288C56.5755 36.9529 56.4884 36.6229 56.3186 36.334C56.1489 36.0451 55.903 35.8085 55.6078 35.6499C51.3159 34.0891 46.3222 34.323 42.368 31.93C39.611 30.1611 38.6485 27.0917 38.9346 24.0223C39.1949 20.8747 41.926 17.9357 44.7873 16.7651C49.0792 14.8403 54.1254 15.1782 58.8335 15.9847C61.4348 16.5311 64.0361 17.8053 65.3366 20.4069L56.3363 24.8548ZM66.3768 24.6464L66.1688 24.8548H56.3363L66.3768 24.6464Z" stroke="#E2001A" stroke-width="0.0739034" stroke-miterlimit="2.6131"/>
<path fill-rule="evenodd" clip-rule="evenodd" d="M96.5249 21.3953C97.641 23.231 98.3339 25.2925 98.5532 27.4297H88.2532C88.1025 26.7066 87.7933 26.026 87.3479 25.4368C86.9026 24.8476 86.332 24.3645 85.6775 24.0223C84.507 23.4761 82.8682 23.6325 81.7758 24.1785C78.9925 26.2854 79.1229 29.9789 79.2788 33.3346C79.6171 35.3632 80.5271 37.8344 82.8424 38.5112C84.351 38.8488 86.0418 38.6404 86.9258 37.2103C87.7503 36.1671 88.1913 34.8722 88.1747 33.5426H98.7615C98.9184 38.5112 95.4058 43.4532 90.9056 45.3259C85.4431 47.5888 78.0041 47.1981 73.5565 43.037C68.4315 38.8752 66.7671 31.8518 68.8739 25.6353C70.5129 20.8492 75.273 16.6088 80.2671 15.8547C86.4577 14.7362 92.8824 16.0886 96.5249 21.3953Z" fill="#E2001A"/>
<path d="M90.9056 45.3259C85.4431 47.5888 78.0041 47.1981 73.5565 43.037C68.4315 38.8752 66.7671 31.8518 68.8739 25.6353C70.5129 20.8492 75.273 16.6088 80.2671 15.8547C86.4577 14.7362 92.8824 16.0886 96.5249 21.3953M96.5249 21.3953C97.641 23.231 98.3339 25.2925 98.5532 27.4297H88.2532C88.1025 26.7066 87.7933 26.026 87.3479 25.4368C86.9026 24.8476 86.332 24.3645 85.6775 24.0223C84.507 23.4761 82.8682 23.6325 81.7758 24.1785C78.9925 26.2854 79.1229 29.9789 79.2788 33.3346C79.6171 35.3632 80.5271 37.8344 82.8424 38.5112C84.351 38.8488 86.0418 38.6403 86.9258 37.2103C87.7503 36.1671 88.1913 34.8722 88.1747 33.5426M96.5249 21.3953L97.6432 27.469" stroke="#E2001A" stroke-width="0.0739034" stroke-miterlimit="2.6131"/>
<path fill-rule="evenodd" clip-rule="evenodd" d="M37.5042 45.768L26.4489 45.7422V16.3745L37.5042 16.323V45.768Z" fill="#E2001A"/>
<path d="M37.5042 45.768L26.4489 45.7422V16.3745L37.5042 16.323V45.768Z" stroke="#E2001A" stroke-width="0.0739034" stroke-miterlimit="2.6131"/>
<path fill-rule="evenodd" clip-rule="evenodd" d="M183.455 24.8286C182.371 24.8221 181.29 24.9356 180.231 25.167C177.604 25.9736 175.601 27.6381 175.21 29.823L174.872 31.8L174.717 45.7421L163.947 45.7679V16.3747H174.717V20.1206C175.939 18.612 177.473 17.1552 179.346 16.5048C180.465 16.0886 182.363 15.9587 183.455 16.0109V24.8286Z" fill="#E2001A"/>
<path d="M173 22L174.717 20.1206C175.939 18.612 177.473 17.1552 179.346 16.5048C180.465 16.0886 182.363 15.9587 183.455 16.0109V24.8286M173 22L183.455 24.8286M173 22L163.947 16.3747V45.7679L174.717 45.7421L174.872 31.8L175.21 29.823M173 22L175.21 29.823M183.455 24.8286C182.371 24.8221 181.29 24.9356 180.231 25.167C177.604 25.9736 175.601 27.6381 175.21 29.823" stroke="#E2001A" stroke-width="0.0739034" stroke-miterlimit="2.6131"/>
<path fill-rule="evenodd" clip-rule="evenodd" d="M145.271 23.6061C147.065 22.9819 149.303 23.19 150.604 24.6209C151.294 25.4161 151.68 26.4295 151.696 27.4822C148.288 27.4819 146.156 27.4822 142.41 27.5863C142.41 25.9469 143.711 24.2302 145.271 23.6061ZM151.878 36.5077C151.279 37.3464 150.446 37.9891 149.483 38.3549C148.52 38.7207 147.47 38.7931 146.466 38.563C144.699 38.2242 142.982 36.8718 142.435 35.0774C142.263 34.6032 142.209 34.094 142.279 33.5943H162.932C163.04 30.2811 162.353 26.9901 160.93 23.9963C158.381 18.3777 152.631 15.3347 146.702 15.3347C140.692 15.2304 135.152 18.8461 132.525 24.1262C130.262 29.1204 130.912 35.9356 134.112 40.3052C137.831 45.4815 143.762 46.9646 149.901 46.4704C155.155 45.7679 161.086 42.0483 162.594 36.5077H151.878Z" fill="#E2001A"/>
<path d="M145.271 23.6061C147.065 22.9819 149.303 23.19 150.604 24.6209C151.294 25.4161 151.68 26.4295 151.696 27.4822C148.288 27.4819 146.156 27.4822 142.41 27.5863C142.41 25.9469 143.711 24.2302 145.271 23.6061ZM151.878 36.5077C151.28 37.3464 150.446 37.9891 149.483 38.3549C148.52 38.7207 147.47 38.7931 146.466 38.563C144.7 38.2242 142.983 36.8718 142.435 35.0774C142.263 34.6032 142.209 34.094 142.279 33.5943" stroke="#E2001A" stroke-width="0.0739034" stroke-miterlimit="2.6131"/>
<path fill-rule="evenodd" clip-rule="evenodd" d="M37.5042 12.785V4.92972L26.4488 4.95547L26.4227 12.8372L37.5042 12.785Z" fill="#E2001A"/>
<path d="M37.5042 12.785V4.92972L26.4488 4.95547L26.4227 12.8372L37.5042 12.785Z" stroke="#E2001A" stroke-width="0.0739034" stroke-miterlimit="2.6131"/>
<path fill-rule="evenodd" clip-rule="evenodd" d="M252.752 28.1842C255.795 26.1292 258.865 23.9181 261.517 21.0309C261.517 23.0337 261.543 24.9325 261.543 26.9095C259.973 28.3338 258.304 29.6463 256.549 30.8374C258.331 32.0529 260.026 33.3915 261.621 34.8432C261.622 36.8463 261.648 38.7453 261.674 40.6954C259.004 37.983 256.028 35.5913 252.804 33.5689C245.104 38.563 236.389 41.3982 226.687 41.3982C216.985 41.2163 208.324 38.459 200.65 33.2305C199.661 32.5541 198.726 31.8 197.815 31.0455L197.789 31.0196C205.983 24.4643 215.451 20.9269 226.168 20.5107C236.104 20.3286 244.843 23.1378 252.752 28.1842Z" fill="white"/>
<path d="M252.752 28.1842C255.795 26.1292 258.865 23.9181 261.517 21.0309C261.517 23.0337 261.543 24.9325 261.543 26.9095C259.973 28.3338 258.304 29.6463 256.55 30.8374M197.789 31.0196C205.983 24.4643 215.451 20.9269 226.168 20.5107C236.104 20.3286 244.843 23.1378 252.751 28.1842L197.789 31.0196ZM197.815 31.0455L197.789 31.0196L197.815 31.0455ZM252.804 33.5689C245.104 38.563 236.389 41.3982 226.687 41.3982C216.985 41.2163 208.324 38.459 200.65 33.2305C199.661 32.5541 198.726 31.8 197.815 31.0455L252.804 33.5689ZM261.674 40.6954C259.004 37.983 256.028 35.5913 252.804 33.5689L261.674 40.6954ZM256.549 30.8374C258.331 32.0529 260.026 33.3915 261.621 34.8432C261.621 36.8463 261.648 38.7453 261.674 40.6954L256.549 30.8374Z" stroke="white" stroke-width="0.0739034" stroke-miterlimit="2.6131"/>
<path fill-rule="evenodd" clip-rule="evenodd" d="M252.752 29.8748C255.348 28.3083 257.795 26.5059 260.061 24.4905V24.6728L260.086 26.4416C258.267 28.1059 256.185 29.5107 254.208 30.8634C256.293 32.1962 258.276 33.683 260.139 35.3114L260.165 37.2622C257.806 35.3251 255.349 33.5105 252.804 31.8255L252.7 31.8518C244.219 37.7831 234.101 40.5918 223.124 39.7592C214.67 38.9532 206.997 36.0915 200.234 31.0196C203.81 28.2444 207.817 26.074 212.095 24.5947C219.456 21.8891 228.847 21.1613 236.833 23.0337C242.53 24.2685 247.935 26.5913 252.752 29.8748Z" fill="#E2001A"/>
<path d="M252.752 29.8748C255.348 28.3083 257.795 26.5059 260.061 24.4905M200.234 31.0196C203.81 28.2444 207.817 26.074 212.095 24.5947C219.456 21.8891 228.847 21.1613 236.833 23.0337C242.53 24.2684 247.935 26.5912 252.751 29.8748L200.234 31.0196ZM252.7 31.8518C244.219 37.7831 234.101 40.5918 223.124 39.7592C214.67 38.9532 206.997 36.0915 200.234 31.0196L252.7 31.8518ZM252.804 31.8255L252.7 31.8518L252.804 31.8255ZM260.165 37.2622C257.806 35.3251 255.349 33.5105 252.804 31.8255L260.165 37.2622ZM260.139 35.3114L260.165 37.2622L260.139 35.3114ZM254.208 30.8634C256.293 32.1962 258.276 33.683 260.139 35.3114L254.208 30.8634ZM260.086 26.4416C258.267 28.1059 256.185 29.5107 254.208 30.8634L260.086 26.4416ZM260.061 24.4905V24.6728L260.086 26.4416L260.061 24.4905Z" stroke="#E2001A" stroke-width="0.0739034" stroke-miterlimit="2.6131"/>
<path fill-rule="evenodd" clip-rule="evenodd" d="M251.268 30.8374V30.8893C241.463 37.7303 227.806 40.2015 215.736 36.8977C211.147 35.6898 206.801 33.7015 202.886 31.0196C203.53 30.5215 204.208 30.0694 204.916 29.6667C214.124 24.0482 226.453 22.0195 237.535 24.7768C242.439 25.9575 247.091 28.0103 251.268 30.8374Z" fill="white"/>
<path d="M251.268 30.8374V30.8893M251.268 30.8893C241.463 37.7303 227.806 40.2015 215.736 36.8977C211.147 35.6898 206.801 33.7015 202.886 31.0196C203.53 30.5215 204.208 30.0694 204.916 29.6667C214.124 24.0482 226.453 22.0195 237.535 24.7768C242.439 25.9575 247.091 28.0103 251.268 30.8374V30.8893Z" stroke="white" stroke-width="0.0739034" stroke-miterlimit="2.6131"/>
<path fill-rule="evenodd" clip-rule="evenodd" d="M215.32 26.7536C215.349 26.9778 215.324 27.2057 215.247 27.4183C215.17 27.6309 215.044 27.8221 214.878 27.9761C214.644 28.1323 214.332 27.9502 214.045 28.0283C213.291 28.1842 212.746 28.8601 212.303 29.4847C212.303 29.5369 212.381 29.5369 212.459 29.5369L215.633 29.5629C215.841 29.6409 216.127 29.5887 216.231 29.823C216.291 30.017 216.3 30.2231 216.256 30.4214C216.023 30.8893 215.815 31.3054 215.606 31.8C215.75 31.75 215.889 31.689 216.023 31.6174C217.74 30.733 219.456 29.7186 221.199 28.7824C221.667 28.6522 222.369 28.4703 222.682 28.9123C222.838 29.2507 222.369 29.4325 222.526 29.7708C222.812 30.6812 222.967 31.8255 222.266 32.5801C221.925 32.9957 221.47 33.303 220.958 33.4647C220.445 33.6264 219.896 33.6353 219.379 33.4905C219.222 33.4251 219.087 33.3171 218.988 33.1787C218.891 32.951 218.866 32.699 218.918 32.4568C218.969 32.2147 219.094 31.9942 219.275 31.8255C219.379 31.7478 219.534 31.6174 219.665 31.7219C219.813 31.8399 219.985 31.9243 220.169 31.9691C220.354 32.014 220.545 32.0183 220.731 31.9817C220.827 31.9214 220.909 31.8416 220.972 31.7475C221.034 31.6534 221.076 31.5471 221.095 31.4356C221.137 31.1569 221.082 30.8723 220.939 30.6295C219.353 31.4875 217.817 32.5019 216.153 33.2305C215.451 33.4905 214.462 33.5689 213.864 33.0224C213.344 32.346 214.098 31.7219 214.072 31.0715L213.993 30.9933C213.11 30.9671 212.226 30.9414 211.315 30.9933C210.769 31.7219 210.482 32.5801 209.884 33.2564C209.476 33.4693 209.001 33.5161 208.558 33.3868C208.454 33.3082 208.324 33.2042 208.324 33.0743L208.375 32.7622L209.286 31.0455L209.207 30.9671C208.869 31.0026 208.527 30.9853 208.194 30.9156C208.137 30.8642 208.095 30.7985 208.072 30.7254C208.049 30.6522 208.046 30.5742 208.063 30.4994C208.127 30.2727 208.25 30.0669 208.419 29.9025C208.588 29.7381 208.797 29.621 209.026 29.5629H210.196C211.315 27.8981 212.901 26.3116 214.982 26.4935C215.087 26.5455 215.294 26.5975 215.32 26.7536Z" fill="#1A171B"/>
<path fill-rule="evenodd" clip-rule="evenodd" d="M218.261 26.9877C218.353 27.1746 218.398 27.3809 218.393 27.5892C218.389 27.7974 218.334 28.0015 218.234 28.1842C218.103 28.3824 217.925 28.5454 217.717 28.6588C217.508 28.7722 217.274 28.8324 217.037 28.8343C216.838 28.8291 216.644 28.771 216.475 28.6659C216.305 28.5608 216.167 28.4125 216.074 28.2363C216.007 28.0378 215.993 27.8251 216.034 27.6196C216.076 27.4141 216.17 27.223 216.309 27.0657C216.49 26.8763 216.716 26.7363 216.967 26.6589C217.217 26.5816 217.483 26.5695 217.74 26.6237C217.943 26.6957 218.123 26.8215 218.261 26.9877Z" fill="#1A171B"/>
<path fill-rule="evenodd" clip-rule="evenodd" d="M232.904 26.9355C232.956 27.3256 232.696 27.6117 232.514 27.9502C231.96 28.7816 231.465 29.6508 231.032 30.5513L231.058 30.6035C231.838 30.0829 232.592 29.4325 233.529 29.3288C233.664 29.3338 233.796 29.3783 233.907 29.4568C234.017 29.5353 234.103 29.6444 234.153 29.7708C234.335 30.395 234.309 31.0973 234.597 31.6697C234.933 31.9036 235.22 31.566 235.532 31.4875C236.156 31.2536 236.443 30.5773 236.754 30.0571C237.087 29.5779 237.543 29.1971 238.074 28.9545C238.605 28.712 239.191 28.6166 239.771 28.6784C239.936 28.7195 240.089 28.797 240.219 28.905C240.35 29.013 240.455 29.1488 240.526 29.3026C240.708 30.1611 239.954 30.8634 239.356 31.2794C238.941 31.5146 238.494 31.6898 238.03 31.7999C238.055 31.93 238.211 31.9817 238.315 32.0339C238.834 32.1381 239.277 31.9036 239.771 31.7219C241.306 31.1495 242.711 30.1869 244.115 29.3026C244.185 29.2705 244.26 29.2539 244.337 29.2539C244.413 29.2539 244.488 29.2705 244.558 29.3026C244.792 29.4325 244.818 29.7708 244.922 30.0307C245.463 29.5715 246.138 29.2981 246.846 29.2507L247.602 29.2766C247.784 29.3284 247.783 30.1093 247.602 30.4214C247.289 30.9671 246.482 30.5513 246.015 30.8634C244.974 31.1237 244.375 32.1381 243.881 33.0224C243.681 33.1877 243.439 33.2945 243.182 33.3312C242.925 33.368 242.663 33.3331 242.425 33.2305C242.06 32.684 242.606 32.2161 242.763 31.7219L242.737 31.6961C241.565 32.4558 240.285 33.0345 238.94 33.4126C237.977 33.6207 236.936 33.4386 236.389 32.5541C236.285 32.5019 236.208 32.6063 236.104 32.6323C235.297 33.1001 234.309 33.8288 233.374 33.2824C232.904 32.7622 232.93 32.0861 232.827 31.4356C232.801 31.3576 232.722 31.2536 232.618 31.2794C232.055 31.574 231.515 31.9132 231.005 32.2938C230.225 32.8144 229.393 33.7766 228.352 33.2305C228.197 33.1265 228.249 32.8662 228.3 32.7361C228.358 32.5073 228.427 32.2815 228.508 32.0599L228.483 32.0339C227.312 32.8662 226.037 33.5166 224.556 33.3604C224.262 33.3024 223.986 33.1755 223.75 32.9901C223.515 32.8047 223.327 32.566 223.202 32.2938C223.126 31.9221 223.149 31.5371 223.267 31.1768C223.386 30.8164 223.597 30.4933 223.878 30.2392C224.329 29.8026 224.882 29.4858 225.486 29.3177C226.09 29.1496 226.727 29.1354 227.338 29.2766C227.599 29.3803 227.312 30.1353 227.105 30.4472C226.871 30.8374 226.427 30.7075 226.037 30.7075C225.808 30.7258 225.587 30.8023 225.396 30.9297C225.205 31.0572 225.05 31.2313 224.945 31.4356C224.919 31.537 224.925 31.6439 224.962 31.7416C225 31.8393 225.066 31.9232 225.153 31.9817C225.829 32.0077 226.376 31.6437 226.948 31.4356C228.219 30.8325 229.326 29.9313 230.174 28.8087C230.46 28.1854 230.808 27.5926 231.214 27.0395C231.5 26.6497 232.255 26.5975 232.775 26.7536L232.904 26.9355Z" fill="#1A171B"/>
<path fill-rule="evenodd" clip-rule="evenodd" d="M239.095 29.8748C239.007 30.0643 238.88 30.2336 238.724 30.3723C238.567 30.511 238.384 30.6161 238.185 30.6812C238.226 30.5133 238.303 30.3565 238.41 30.2216C238.518 30.0868 238.655 29.9773 238.809 29.9008C238.887 29.9008 239.017 29.7708 239.095 29.8748Z" fill="white"/>
<path d="M239.095 29.8748C239.007 30.0643 238.88 30.2336 238.724 30.3723C238.567 30.511 238.384 30.6161 238.185 30.6812C238.226 30.5133 238.303 30.3565 238.41 30.2216C238.518 30.0868 238.655 29.9773 238.809 29.9008C238.887 29.9008 239.017 29.7708 239.095 29.8748" stroke="white" stroke-width="0.0739034" stroke-miterlimit="2.6131"/>
<path fill-rule="evenodd" clip-rule="evenodd" d="M271.194 19.054H272.677C272.826 19.0702 272.977 19.0503 273.117 18.996C273.257 18.9417 273.383 18.8546 273.482 18.742C273.565 18.6288 273.611 18.4926 273.613 18.3522C273.618 18.2025 273.572 18.0556 273.482 17.9357C273.381 17.8241 273.256 17.736 273.117 17.6776C272.978 17.6192 272.827 17.592 272.677 17.5977H271.194V19.054ZM272.573 17.0772C272.781 17.0772 273.561 16.9993 274.029 17.6235C274.183 17.8249 274.266 18.0721 274.263 18.3259C274.274 18.5566 274.21 18.7847 274.081 18.9759C273.944 19.1685 273.759 19.3223 273.545 19.4226C273.331 19.5229 273.094 19.5662 272.859 19.5483L274.29 21.681H273.482L272.183 19.6264H271.194V21.6552H270.544V17.0772H272.573ZM268.62 19.3924C268.625 20.091 268.837 20.7724 269.229 21.3508C269.62 21.9291 270.175 22.3785 270.822 22.6422C271.469 22.9059 272.179 22.9721 272.864 22.8326C273.548 22.693 274.176 22.3539 274.668 21.858C275.16 21.3621 275.494 20.7316 275.629 20.046C275.763 19.3605 275.691 18.6505 275.422 18.0056C275.154 17.3608 274.7 16.8099 274.119 16.4225C273.537 16.0351 272.854 15.8286 272.156 15.8288C271.689 15.8293 271.227 15.9221 270.797 16.1017C270.366 16.2813 269.975 16.5442 269.647 16.8754C269.318 17.2066 269.058 17.5994 268.882 18.0314C268.706 18.4634 268.617 18.9259 268.62 19.3924ZM276.37 19.3924C276.357 19.9824 276.233 20.5645 276.006 21.1091C275.668 21.8465 275.126 22.4714 274.443 22.9095C273.761 23.3476 272.967 23.5804 272.156 23.5803C271.044 23.5768 269.979 23.1326 269.194 22.3451C268.409 21.5577 267.968 20.4911 267.968 19.3793C267.968 18.2674 268.409 17.2009 269.194 16.4134C269.979 15.6259 271.044 15.1818 272.156 15.1782C273.272 15.1825 274.342 15.6279 275.131 16.4173C275.921 17.2067 276.366 18.276 276.37 19.3924Z" fill="#1A171B"/>
<path d="M103.6 62.6461H102.454L99.5896 71.7336H100.735L103.6 62.6461ZM104.884 58.5566H103.738L103.363 59.7421H104.509L104.884 58.5566ZM107.709 62.6461H106.623C106.524 63.1598 106.366 63.6931 106.089 64.6217L103.857 71.7336H105.003L106.346 67.4861C106.84 65.9255 107.275 65.0563 107.926 64.4043C108.261 64.0361 108.666 63.7381 109.117 63.5278C109.568 63.3175 110.057 63.1991 110.554 63.1794C111.581 63.1794 112.233 63.7327 112.233 64.6019C112.216 65.0326 112.136 65.4585 111.996 65.8663L110.139 71.7336H111.285L113.063 66.1033C113.248 65.548 113.354 64.9694 113.379 64.3845C113.379 63.2387 112.312 62.3497 110.949 62.3497C110.106 62.3659 109.287 62.6343 108.598 63.1202C108.146 63.4372 107.735 63.8088 107.373 64.2266L107.709 62.6461ZM118.199 62.6461H117.113C117.014 63.1598 116.856 63.6931 116.579 64.6217L114.347 71.7336H115.493L116.836 67.4861C117.33 65.9255 117.765 65.0563 118.417 64.4043C118.751 64.0361 119.156 63.7381 119.607 63.5279C120.058 63.3176 120.547 63.1991 121.044 63.1794C122.071 63.1794 122.723 63.7327 122.723 64.6019C122.706 65.0326 122.626 65.4585 122.486 65.8663L120.629 71.7336H121.775L123.553 66.1033C123.738 65.548 123.845 64.9694 123.869 64.3845C123.869 63.2387 122.802 62.3497 121.439 62.3497C120.596 62.366 119.777 62.6343 119.088 63.1202C118.636 63.4372 118.225 63.8088 117.863 64.2266L118.199 62.6461ZM131.06 62.3497C130.338 62.3455 129.623 62.501 128.967 62.8049C128.311 63.1089 127.731 63.5538 127.267 64.108C126.253 65.3483 125.683 66.892 125.647 68.4937C125.647 70.5681 127.05 71.8917 129.243 71.8917C129.929 71.8968 130.609 71.7549 131.236 71.4754C131.863 71.196 132.423 70.7855 132.878 70.2717C133.949 69.0544 134.57 67.5062 134.636 65.8861C134.636 63.6931 133.273 62.3497 131.06 62.3497ZM131.04 63.1794C132.522 63.1794 133.49 64.1673 133.49 65.7279C133.39 66.9496 133.011 68.1322 132.384 69.1851C132.07 69.7448 131.614 70.2126 131.063 70.5419C130.512 70.8711 129.885 71.0504 129.243 71.062C128.918 71.0737 128.594 71.0183 128.292 70.8994C127.989 70.7804 127.714 70.6004 127.484 70.3706C127.255 70.1407 127.075 69.866 126.956 69.5635C126.837 69.261 126.781 68.9372 126.793 68.6124C126.851 67.3972 127.211 66.2157 127.84 65.1748C128.63 63.8709 129.737 63.1794 131.04 63.1794ZM144.948 62.6461H143.743L139.93 68.6518C139.515 69.3234 138.982 70.252 138.666 70.9237C138.646 70.5681 138.626 70.2322 138.626 70.1335C138.626 70.0346 138.567 69.3234 138.527 68.5135L138.113 62.6461H137.046L137.816 71.7336H138.962L144.948 62.6461ZM147.318 64.8191C147.773 63.6338 148.424 63.1794 149.709 63.1794C151.131 63.1794 151.724 63.6931 151.724 64.918C151.728 65.2071 151.681 65.4946 151.586 65.7676L151.428 66.2811H150.005C148.939 66.2535 147.872 66.3396 146.824 66.5379C145.205 66.9725 144.217 68.1381 144.217 69.6199C144.217 70.9631 145.343 71.8917 146.963 71.8917C148.187 71.8917 149.057 71.5164 150.282 70.4494L149.866 71.7336H150.993C151.202 70.7173 151.473 69.7146 151.803 68.7309L152.435 66.7355C152.68 66.0893 152.826 65.4101 152.87 64.7204C152.87 63.2387 151.684 62.3497 149.709 62.3497C148.783 62.3046 147.873 62.592 147.141 63.1598C146.686 63.5351 146.449 63.9301 146.173 64.8191H147.318ZM151.171 67.1108C150.657 68.5333 150.38 69.1259 149.926 69.6593C149.596 70.0814 149.177 70.4258 148.699 70.6681C148.221 70.9105 147.696 71.045 147.16 71.062C146.073 71.062 145.362 70.4494 145.362 69.5014C145.362 68.5727 145.936 67.8419 146.923 67.4861C147.654 67.2097 148.563 67.1108 150.045 67.1108H151.171ZM158.599 63.4759H160.318L160.575 62.6461H158.855L159.468 60.6705L158.184 61.1051L157.71 62.6461H155.932L155.675 63.4759H157.453L155.991 68.1381C155.517 69.6199 155.458 69.8569 155.458 70.3113C155.458 71.3384 156.169 71.8917 157.493 71.8917C157.859 71.8778 158.224 71.8248 158.579 71.7336L158.875 70.7853C158.456 70.8961 158.025 70.9558 157.591 70.9631C156.959 70.9631 156.604 70.7064 156.604 70.2322C156.642 69.6969 156.762 69.1706 156.959 68.6716L158.599 63.4759ZM164.505 62.6461H163.36L160.495 71.7336H161.64L164.505 62.6461ZM165.79 58.5566H164.644L164.268 59.7421H165.414L165.79 58.5566H165.79ZM174.067 62.6461H172.862L169.049 68.6518C168.634 69.3234 168.101 70.252 167.784 70.9237C167.765 70.5681 167.745 70.2322 167.745 70.1335C167.745 70.0346 167.686 69.3234 167.647 68.5135L167.232 62.6461H166.165L166.936 71.7336H168.081L174.067 62.6461ZM181.831 67.3676C182.206 66.2416 182.325 65.7478 182.325 65.076C182.325 63.3968 181.179 62.3695 179.283 62.3695C178.602 62.3645 177.929 62.5129 177.313 62.8036C176.698 63.0943 176.155 63.5199 175.727 64.0488C174.579 65.4602 173.927 67.2091 173.869 69.0271C173.869 70.7657 175.153 71.8917 177.149 71.8917C178.057 71.9182 178.952 71.6753 179.722 71.1936C180.492 70.7119 181.102 70.013 181.475 69.1851H180.27C179.381 70.4693 178.452 71.062 177.228 71.062C175.845 71.062 175.015 70.3113 175.015 69.0469C175.012 68.4739 175.113 67.9051 175.312 67.3676H181.831ZM175.509 66.5379C176.279 64.3649 177.584 63.1993 179.263 63.1993C180.389 63.1993 181.179 63.8907 181.179 64.8389C181.163 65.4183 181.056 65.9915 180.863 66.5379H175.509ZM198.786 65.1156C198.806 64.8784 198.806 64.7006 198.806 64.5228C198.806 63.14 197.759 62.3497 195.961 62.3497C193.709 62.3497 192.287 63.377 192.287 64.9773C192.277 65.2242 192.318 65.4705 192.406 65.7014C192.494 65.9323 192.628 66.1429 192.8 66.3207C193.116 66.617 193.571 66.8738 194.934 67.5258C196.139 68.0789 196.514 68.474 196.514 69.2247C196.514 70.3113 195.467 71.062 193.946 71.062C193.623 71.0888 193.298 71.0443 192.994 70.9317C192.691 70.819 192.415 70.6409 192.188 70.41C191.891 70.0741 191.793 69.7384 191.733 68.8296H190.627C190.726 71.0422 191.615 71.8917 193.827 71.8917C196.1 71.8917 197.66 70.7657 197.66 69.1259C197.66 68.0591 197.048 67.2886 195.685 66.6564C195.158 66.4398 194.65 66.1822 194.163 65.8861C193.649 65.57 193.432 65.2341 193.432 64.7797C193.432 63.8314 194.42 63.1794 195.863 63.1794C197.048 63.1794 197.64 63.6536 197.64 64.6019C197.64 64.7006 197.64 64.7995 197.62 65.1156H198.786ZM205.661 62.3497C204.938 62.3455 204.224 62.5009 203.568 62.8049C202.912 63.1088 202.332 63.5538 201.868 64.108C200.854 65.3482 200.284 66.892 200.248 68.4937C200.248 70.5681 201.65 71.8917 203.844 71.8917C204.53 71.8967 205.21 71.7548 205.837 71.4753C206.464 71.1959 207.024 70.7855 207.479 70.2717C208.55 69.0543 209.17 67.5062 209.237 65.8861C209.237 63.6931 207.874 62.3497 205.661 62.3497ZM205.641 63.1794C207.123 63.1794 208.091 64.1673 208.091 65.7279C207.991 66.9496 207.612 68.1321 206.985 69.1851C206.67 69.7448 206.215 70.2126 205.664 70.5418C205.113 70.8711 204.485 71.0504 203.844 71.062C203.519 71.0736 203.195 71.0183 202.892 70.8993C202.59 70.7803 202.315 70.6003 202.085 70.3705C201.856 70.1406 201.676 69.8659 201.557 69.5634C201.438 69.2609 201.382 68.9372 201.394 68.6124C201.452 67.3973 201.812 66.2159 202.441 65.1748C203.231 63.8709 204.338 63.1794 205.641 63.1794ZM215.578 58.5566H214.432L210.284 71.7336H211.43L215.578 58.5566ZM224.804 62.6461H223.658L222.69 65.6885C221.821 68.474 221.682 68.7901 221.05 69.5408C220.24 70.5285 219.292 71.062 218.403 71.062C217.376 71.062 216.645 70.41 216.645 69.4816C216.676 68.8909 216.782 68.3066 216.961 67.743L218.561 62.6461H217.415L216.112 66.7751C215.657 68.2172 215.499 68.9481 215.499 69.5803C215.499 70.9237 216.566 71.8917 218.048 71.8917C219.194 71.8917 220.319 71.2792 221.485 70.0346L221.228 71.7336H222.295C222.335 71.4768 222.354 71.299 222.394 71.1411C222.565 69.9871 222.836 68.8502 223.204 67.743L224.804 62.6461ZM229.624 63.4759H231.342L231.599 62.6461H229.881L230.493 60.6705L229.209 61.1051L228.735 62.6461H226.957L226.7 63.4759H228.478L227.016 68.1381C226.542 69.6199 226.483 69.8569 226.483 70.3113C226.483 71.3384 227.194 71.8917 228.517 71.8917C228.884 71.8779 229.248 71.8249 229.604 71.7336L229.9 70.7853C229.481 70.8961 229.05 70.9558 228.617 70.9631C227.984 70.9631 227.628 70.7064 227.628 70.2322C227.667 69.697 227.787 69.1707 227.984 68.6716L229.624 63.4759ZM235.53 62.6461H234.384L231.52 71.7336H232.666L235.53 62.6461ZM236.814 58.5566H235.669L235.293 59.7421H236.439L236.814 58.5566ZM242.01 62.3497C241.288 62.3455 240.573 62.5009 239.917 62.8049C239.262 63.1088 238.681 63.5538 238.217 64.108C237.203 65.3483 236.633 66.892 236.597 68.4937C236.597 70.5681 238 71.8917 240.193 71.8917C240.879 71.8967 241.559 71.7548 242.186 71.4753C242.813 71.1959 243.373 70.7855 243.828 70.2717C244.899 69.0542 245.519 67.5061 245.586 65.8861C245.586 63.6931 244.223 62.3497 242.01 62.3497ZM241.99 63.1794C243.472 63.1794 244.44 64.1673 244.44 65.7279C244.34 66.9496 243.961 68.1321 243.334 69.1851C243.02 69.7448 242.564 70.2126 242.013 70.5418C241.462 70.8711 240.835 71.0504 240.193 71.062C239.868 71.0736 239.544 71.0183 239.242 70.8993C238.939 70.7803 238.664 70.6003 238.435 70.3705C238.205 70.1406 238.025 69.8659 237.906 69.5634C237.787 69.2609 237.732 68.9372 237.743 68.6124C237.801 67.3973 238.16 66.2157 238.79 65.1748C239.58 63.8709 240.687 63.1794 241.99 63.1794ZM250.485 62.6461H249.399C249.299 63.1598 249.142 63.6931 248.865 64.6217L246.633 71.7336H247.779L249.122 67.4861C249.616 65.9255 250.051 65.0563 250.702 64.4043C251.037 64.0361 251.442 63.7381 251.893 63.5278C252.344 63.3175 252.832 63.1991 253.33 63.1794C254.357 63.1794 255.009 63.7327 255.009 64.6019C254.991 65.0326 254.912 65.4585 254.772 65.8663L252.915 71.7336H254.061L255.839 66.1033C256.024 65.5479 256.13 64.9694 256.155 64.3845C256.155 63.2387 255.088 62.3497 253.725 62.3497C252.882 62.3659 252.063 62.6343 251.374 63.1202C250.922 63.4373 250.51 63.8089 250.149 64.2266L250.485 62.6461ZM265.558 65.1156C265.578 64.8784 265.578 64.7006 265.578 64.5228C265.578 63.14 264.531 62.3497 262.733 62.3497C260.482 62.3497 259.059 63.377 259.059 64.9773C259.049 65.2243 259.09 65.4707 259.178 65.7015C259.267 65.9324 259.401 66.143 259.573 66.3207C259.888 66.617 260.343 66.8738 261.706 67.5258C262.911 68.0789 263.287 68.474 263.287 69.2247C263.287 70.3113 262.239 71.062 260.719 71.062C260.396 71.0888 260.071 71.0443 259.767 70.9316C259.463 70.819 259.188 70.6409 258.96 70.41C258.664 70.0741 258.565 69.7384 258.505 68.8296H257.4C257.498 71.0422 258.387 71.8917 260.6 71.8917C262.872 71.8917 264.432 70.7657 264.432 69.1259C264.432 68.0591 263.82 67.2886 262.457 66.6564C261.931 66.4398 261.422 66.1822 260.936 65.8861C260.422 65.57 260.205 65.2341 260.205 64.7797C260.205 63.8314 261.193 63.1794 262.635 63.1794C263.82 63.1794 264.412 63.6536 264.412 64.6019C264.412 64.7006 264.412 64.7995 264.393 65.1156H265.558Z" fill="#1A171B"/>
</svg>
