<svg width="120" height="80" viewBox="0 0 120 80" fill="none" xmlns="http://www.w3.org/2000/svg">
<path d="M110 17.6589H10.0001V62.3411H110V17.6589Z" fill="#003976"/>
<path d="M72.3198 48.2255L70.3975 48.2224V46.9897L75.8634 46.9832L75.8627 48.2296L73.9866 48.2282L73.9793 53.1217L72.3277 53.134L72.3198 48.2255Z" fill="#FFD118"/>
<path d="M22.83 24.2945H16.322V45.3585H22.83V24.2945Z" fill="#FFD118"/>
<path d="M79.8694 24.2945H73.3578V45.3585H79.8694V24.2945Z" fill="#FFD118"/>
<path d="M95.0164 35.4108V24.2944H100.269V45.3584H94.9854L87.4871 33.116H87.4938V45.3584H82.2434V24.2944H88.3528L95.0104 35.4108H95.0164Z" fill="#FFD118"/>
<path d="M66.3716 24.2944L63.4531 36.4525H63.3924L60.9141 24.2944H56.043L53.5841 36.4525H53.5178L50.6 24.2944H44.5188L50.141 45.3584H55.7908L58.4863 33.9115L61.1826 45.3584H66.8341L72.4514 24.2944H66.3716Z" fill="#FFD118"/>
<path d="M41.492 37.3745L45.1927 45.3585H38.2888L35.2185 38.8465H31.7782V45.3585H25.2377V24.2945C25.2377 24.2945 36.0081 24.2917 36.6582 24.2945C37.3479 24.2972 38.1475 24.3465 38.2867 24.3544C39.7793 24.4476 41.2032 25.0148 42.3511 25.9734C43.4991 26.9319 44.3111 28.2318 44.6691 29.6838C45.0271 31.1359 44.9124 32.6643 44.3415 34.0466C43.7707 35.4289 42.7736 36.5929 41.4954 37.3693L41.492 37.3745ZM35.2112 34.3307C35.9489 34.3307 36.6564 34.0377 37.1781 33.516C37.6997 32.9944 37.9928 32.2869 37.9928 31.5491C37.9928 30.8114 37.6997 30.1039 37.1781 29.5823C36.6564 29.0606 35.9489 28.7676 35.2112 28.7676L31.7782 28.7786V34.3324L35.2112 34.3307Z" fill="#FFD118"/>
<path d="M103.177 41.212C103.598 41.2119 104.009 41.3363 104.358 41.5695C104.708 41.8028 104.98 42.1343 105.142 42.5224C105.303 42.9104 105.346 43.3376 105.265 43.7499C105.184 44.1622 104.982 44.5413 104.686 44.8392C104.389 45.1371 104.011 45.3405 103.599 45.4238C103.187 45.5071 102.76 45.4664 102.371 45.307C101.982 45.1476 101.649 44.8766 101.414 44.5282C101.179 44.1798 101.053 43.7695 101.051 43.3493C101.049 43.0689 101.102 42.7908 101.208 42.5312C101.314 42.2716 101.47 42.0355 101.668 41.8367C101.866 41.638 102.101 41.4804 102.36 41.3731C102.619 41.2659 102.897 41.2111 103.177 41.212ZM103.177 44.9237C103.493 44.9303 103.803 44.8427 104.068 44.6721C104.334 44.5015 104.542 44.2556 104.667 43.966C104.791 43.6763 104.827 43.356 104.769 43.046C104.71 42.7361 104.561 42.4505 104.34 42.2259C104.118 42.0013 103.835 41.8478 103.526 41.7851C103.217 41.7225 102.896 41.7534 102.604 41.874C102.313 41.9946 102.064 42.1995 101.89 42.4623C101.715 42.7251 101.623 43.0339 101.625 43.3493C101.623 43.5548 101.662 43.7587 101.739 43.9493C101.816 44.1398 101.929 44.3133 102.074 44.4596C102.218 44.606 102.39 44.7223 102.579 44.802C102.769 44.8816 102.972 44.923 103.177 44.9237ZM102.359 42.1373H103.168C103.454 42.1373 104.06 42.1373 104.06 42.8498C104.071 42.9748 104.042 43.1001 103.977 43.2074C103.912 43.3146 103.814 43.3982 103.698 43.4457L104.156 44.4769H103.539L103.209 43.5625H102.934V44.4769H102.359V42.1373ZM102.934 43.1791H103.177C103.412 43.1791 103.495 43.0306 103.495 42.8398C103.495 42.5211 103.274 42.5211 103.156 42.5211H102.934V43.1791Z" fill="#FFD118"/>
<path d="M79.1876 46.9263C81.1237 46.9284 82.3584 48.1252 82.3557 50.0579C82.3526 51.9872 81.1175 53.183 79.1831 53.1795C77.2462 53.1781 76.0305 51.9806 76.0332 50.05C76.0353 48.1187 77.2524 46.9249 79.1876 46.9263ZM79.1831 51.9259C80.1553 51.9259 80.71 51.2741 80.71 50.0559C80.7106 48.8346 80.1511 48.1821 79.1882 48.1814C78.224 48.1814 77.6717 48.8308 77.671 50.0521C77.6696 51.2792 78.2191 51.9245 79.1831 51.9259Z" fill="#FFD118"/>
<path d="M86.2669 46.9198C88.2017 46.9219 89.4354 48.118 89.4347 50.0514C89.4327 51.9799 88.1945 53.175 86.2597 53.1723C84.3239 53.1702 83.1095 51.9741 83.1119 50.0435C83.1126 48.1128 84.3305 46.9184 86.2669 46.9198ZM86.2625 51.918C87.2333 51.9193 87.7876 51.2668 87.7876 50.0493C87.7897 48.8267 87.2302 48.1755 86.2659 48.1728C85.3027 48.1728 84.7494 48.8232 84.7487 50.0448C84.7473 51.2727 85.2982 51.9173 86.2625 51.918Z" fill="#FFD118"/>
<path d="M90.0559 46.9804H91.6754L91.6716 51.8125L94.7192 51.8156L94.7188 53.1282L90.05 53.1241L90.0559 46.9804Z" fill="#FFD118"/>
<path d="M96.6588 51.0628C96.6763 51.7371 97.0783 52.0864 97.8477 52.0864C98.5232 52.0864 98.8829 51.8659 98.8836 51.5018C98.8877 51.4154 98.8668 51.3297 98.8232 51.255C98.7797 51.1803 98.7155 51.1198 98.6383 51.0808C98.2621 50.8971 97.5445 50.7818 96.6246 50.4359C95.7148 50.0969 95.2414 49.5253 95.2425 48.7912C95.2425 47.6791 96.1833 46.9387 97.7581 46.9394C99.2915 46.9422 100.227 47.7173 100.227 48.8959L98.7103 48.8945C98.6414 48.343 98.3 48.0863 97.6513 48.0842C97.1087 48.0849 96.7765 48.3233 96.7752 48.6203C96.7752 49.0647 97.2647 49.1567 98.2542 49.4626C98.8019 49.5879 99.3276 49.7948 99.8138 50.0765C100.011 50.2201 100.17 50.4093 100.277 50.6279C100.385 50.8465 100.438 51.088 100.431 51.3316C100.431 52.4854 99.4606 53.2012 97.6899 53.1988C96.052 53.1988 95.2025 52.4953 95.1074 51.0615L96.6588 51.0628Z" fill="#FFD118"/>
<path d="M16.2726 46.9618V48.3718H65.8488L71.7063 55.8144H100.452V54.4953H72.3438L66.4408 46.9618H16.2726Z" fill="#FFD118"/>
</svg>
