<svg width="120" height="75" viewBox="0 0 120 75" fill="none" xmlns="http://www.w3.org/2000/svg">
<path d="M110.867 41.9657H9.67419V53.5192H110.867V41.9657Z" fill="#1A171B"/>
<path d="M90.2856 43.6093L92.803 46.2449L95.2658 43.6093H98.7205L94.4332 47.5721L99.0662 51.8756H95.1384L92.416 48.9906L89.7067 51.8756H86.1362L90.7417 47.5721L86.4537 43.6093H90.2856Z" fill="#FFD300"/>
<path d="M58.8429 43.6093L61.7875 49.7473L64.9015 43.6093H69.2304V51.8756H66.4915V45.1425H66.4632L63.1581 51.8756H60.1725L56.8518 45.1425H56.8253V51.8756H54.364V43.6093H58.8429Z" fill="#FFD300"/>
<path d="M52.1948 43.6093V45.3051H48.3488V51.8756H45.4454V45.3051H41.6016V43.6093H52.1948Z" fill="#FFD300"/>
<path d="M27.6359 43.6093V45.3739H22.4504V47.0902H27.3462V48.7853H22.4504V51.8756H19.5474V43.6093H27.6359Z" fill="#FFD300"/>
<path d="M85.1993 51.8756L80.0131 43.6093H76.5446L71.2473 51.8756H74.2322L78.1469 45.2134L80.2135 48.8357H78.1469L77.465 50.2225H81.0051L81.9485 51.8756H85.1993Z" fill="#FFD300"/>
<path d="M32.8792 43.6093L27.5815 51.8756H30.5689L34.4812 45.2134L36.5499 48.8357H34.526L33.8426 50.2225H37.3415L38.2834 51.8756H41.535L36.3481 43.6093H32.8792Z" fill="#FFD300"/>
<path d="M10.1332 33.598C11.4974 34.3211 13.0184 34.698 14.5624 34.6956C15.8366 34.6956 17.3032 34.4434 17.3032 33.2889C17.3032 30.6031 9.70827 32.1393 9.70827 26.6602C9.70827 23.0367 13.0524 22.1072 16.0748 22.1072C17.6359 22.0983 19.1888 22.3323 20.6778 22.801L20.3023 26.0328C19.0695 25.4842 17.7401 25.1854 16.3911 25.1537C15.3767 25.1537 13.8091 25.2219 13.8091 26.5369C13.8091 28.9116 21.444 27.682 21.444 32.9468C21.444 36.8515 17.908 37.7431 14.5624 37.7431C12.9061 37.7389 11.2593 37.4926 9.67419 37.012L10.1332 33.598Z" fill="#1A171B"/>
<path d="M35.1448 22.3975H22.4952V25.455H26.8154V37.4544H30.8268V25.455H35.1448V22.3975Z" fill="#1A171B"/>
<path d="M106.225 22.3975L103.311 28.4346L100.358 22.3975H95.7407L101.306 31.7796V37.4544H105.319V31.7796L110.842 22.3975H106.225Z" fill="#1A171B"/>
<path d="M52.4436 22.3975V37.4544H56.3062V29.3391L62.8572 37.4544H66.1395V35.1882L55.7456 22.3975H52.4436Z" fill="#1A171B"/>
<path d="M66.1395 30.0217V22.3975H59.9927L66.1395 30.0217Z" fill="#1A171B"/>
<path d="M87.0415 31.3612H93.3704V28.3587H87.0415V25.3573H93.9965V22.3975H82.926V37.4544H94.2343V34.4509H87.0415V31.3612Z" fill="#1A171B"/>
<path d="M73.9171 22.3975H69.8016V37.4544H80.5021V34.3531H73.9171V22.3975Z" fill="#1A171B"/>
<path d="M46.0118 37.4544H50.2369L44.6344 22.3976H39.9742L34.4525 37.4544H38.3696L39.3909 34.4451H45.0278L46.0118 37.4544ZM40.3102 31.5988L42.2636 25.555L44.1413 31.5988H40.3102Z" fill="#1A171B"/>
<path d="M108.527 34.4641C108.726 34.4611 108.923 34.4978 109.108 34.572C109.292 34.6463 109.46 34.7565 109.602 34.8963C109.743 35.0362 109.856 35.2028 109.932 35.3865C110.009 35.5701 110.048 35.7672 110.047 35.9662C110.047 36.1651 110.007 36.362 109.929 36.5453C109.852 36.7286 109.739 36.8947 109.597 37.0338C109.454 37.1729 109.286 37.2823 109.101 37.3555C108.916 37.4288 108.718 37.4645 108.519 37.4606C108.319 37.4658 108.12 37.4309 107.934 37.358C107.747 37.285 107.577 37.1755 107.434 37.0359C107.291 36.8962 107.177 36.7293 107.099 36.5449C107.021 36.3605 106.981 36.1624 106.981 35.9623C106.981 35.7622 107.021 35.5641 107.099 35.3797C107.177 35.1954 107.291 35.0284 107.434 34.8888C107.577 34.7491 107.747 34.6396 107.934 34.5667C108.12 34.4937 108.319 34.4588 108.519 34.4641H108.527ZM108.509 34.7641C108.2 34.7759 107.906 34.9079 107.692 35.1322C107.478 35.3564 107.359 35.6552 107.362 35.9653C107.364 36.2754 107.487 36.5725 107.704 36.7936C107.922 37.0147 108.217 37.1425 108.527 37.1498C108.68 37.1496 108.832 37.1185 108.973 37.0584C109.114 36.9984 109.241 36.9105 109.347 36.8002C109.454 36.6898 109.537 36.5592 109.592 36.4161C109.646 36.273 109.672 36.1203 109.666 35.9671C109.672 35.8124 109.646 35.6582 109.591 35.5135C109.536 35.3688 109.452 35.2365 109.346 35.1245C109.239 35.0124 109.111 34.9229 108.969 34.861C108.827 34.7991 108.674 34.7661 108.519 34.7641H108.509ZM108.281 36.7306H107.937V35.2382C108.126 35.2087 108.318 35.1934 108.509 35.1923C108.688 35.1726 108.868 35.2148 109.019 35.3119C109.069 35.348 109.11 35.396 109.137 35.4516C109.164 35.5072 109.177 35.5687 109.174 35.6306C109.169 35.7158 109.136 35.7969 109.079 35.8609C109.022 35.9249 108.946 35.9683 108.862 35.984V36.003C109.011 36.0502 109.081 36.1666 109.127 36.3675C109.146 36.4932 109.183 36.6156 109.237 36.7306H108.873C108.815 36.6164 108.775 36.4939 108.755 36.3675C108.727 36.2114 108.637 36.1408 108.444 36.1408H108.281V36.7306ZM108.291 35.8941H108.454C108.647 35.8941 108.802 35.8293 108.802 35.677C108.802 35.5382 108.7 35.448 108.483 35.448C108.419 35.4463 108.354 35.4525 108.291 35.4666V35.8941Z" fill="#1A171B"/>
<path d="M100.329 50.0345C100.452 50.0327 100.573 50.0552 100.686 50.1008C100.8 50.1464 100.903 50.2141 100.99 50.3C101.077 50.3858 101.146 50.4882 101.193 50.601C101.24 50.7138 101.264 50.8349 101.264 50.9571C101.264 51.0794 101.239 51.2003 101.191 51.3129C101.144 51.4255 101.074 51.5276 100.987 51.6131C100.9 51.6986 100.796 51.7658 100.683 51.8109C100.569 51.8559 100.448 51.8779 100.325 51.8755C100.202 51.8788 100.08 51.8574 99.9655 51.8126C99.8509 51.7678 99.7465 51.7005 99.6584 51.6147C99.5703 51.5289 99.5003 51.4264 99.4525 51.3131C99.4046 51.1998 99.38 51.078 99.38 50.955C99.38 50.832 99.4046 50.7103 99.4525 50.597C99.5003 50.4837 99.5703 50.3811 99.6584 50.2953C99.7465 50.2095 99.8509 50.1422 99.9655 50.0974C100.08 50.0526 100.202 50.0312 100.325 50.0345H100.329ZM100.319 50.2185C100.129 50.2258 99.9484 50.307 99.8167 50.4448C99.6851 50.5827 99.6122 50.7663 99.6135 50.9569C99.6149 51.1476 99.6903 51.3302 99.8239 51.4662C99.9576 51.6021 100.139 51.6807 100.329 51.6854C100.424 51.6851 100.517 51.6659 100.603 51.629C100.69 51.592 100.768 51.538 100.834 51.4702C100.899 51.4024 100.95 51.3222 100.984 51.2343C101.018 51.1464 101.033 51.0526 101.03 50.9585C101.033 50.8633 101.018 50.7685 100.984 50.6795C100.95 50.5906 100.899 50.5092 100.833 50.4403C100.768 50.3714 100.689 50.3163 100.602 50.2782C100.514 50.2401 100.42 50.2198 100.325 50.2185H100.319ZM100.179 51.427H99.967V50.5099C100.084 50.4922 100.201 50.4827 100.319 50.4817C100.429 50.4696 100.539 50.4956 100.632 50.5554C100.663 50.5776 100.688 50.6072 100.705 50.6415C100.721 50.6758 100.729 50.7137 100.728 50.7518C100.724 50.8041 100.704 50.8538 100.669 50.8931C100.634 50.9324 100.588 50.959 100.536 50.9688V50.9798C100.627 51.0088 100.67 51.0811 100.698 51.2045C100.71 51.2815 100.733 51.3565 100.766 51.427H100.542C100.507 51.357 100.482 51.282 100.47 51.2045C100.453 51.108 100.398 51.0646 100.278 51.0646H100.179V51.427ZM100.185 50.913H100.285C100.404 50.913 100.499 50.873 100.499 50.78C100.499 50.6946 100.436 50.6388 100.303 50.6388C100.263 50.6376 100.224 50.6416 100.185 50.6505V50.913Z" fill="#FFD300"/>
</svg>
