<svg width="226" height="32" viewBox="0 0 226 32" fill="none" xmlns="http://www.w3.org/2000/svg">
<path fill-rule="evenodd" clip-rule="evenodd" d="M116.576 0.512352H106.942L106.944 16.7627L113.03 16.7722L113.035 5.14182L113.112 5.08317L121.275 16.7758L126.006 16.7556L134.22 5.14145L134.208 16.7276L140.311 16.7813L140.313 0.512355H130.898L123.643 10.956L116.576 0.512352ZM86.7292 12.8658V10.2816C91.802 10.2715 96.9104 10.2614 101.983 10.2514L101.974 6.88393L86.7292 6.87523V4.32449L102.823 4.29025L102.838 0.532837L80.4871 0.499027V16.7782L103.174 16.7596L103.165 12.8763L86.7292 12.8658ZM168.183 10.4541C169.131 8.7965 169.088 7.33106 168.935 5.20752C168.772 2.94268 167.312 1.41813 165.051 0.926419C164.72 0.770653 163.183 0.548855 162.675 0.619868L144.562 0.544506L144.533 16.7899L150.791 16.7782L150.765 12.7206L160.779 12.6901C163.285 12.6923 166.689 13.0693 168.183 10.4541V10.4541ZM150.812 4.55242C151.452 4.63962 152.56 4.57334 153.252 4.57273C154.082 4.57197 154.911 4.57126 155.741 4.57058C157.317 4.56944 159.13 4.48941 160.678 4.60892C162.822 4.66417 163.448 7.17981 161.894 8.32349C161.622 8.52323 161.279 8.57344 160.937 8.63655L150.83 8.63882L150.812 4.55242H150.812ZM199.494 16.7619L205.727 16.7743L205.741 12.5708C208.864 12.71 212.211 12.5831 215.351 12.5825C218.667 12.5251 218.12 14.1429 218.122 16.7694C218.828 16.8044 224.08 16.847 224.386 16.7468C224.401 15.2929 224.643 13.3485 223.97 12.0595C223.62 11.157 221.891 10.4257 220.995 10.4935C226.25 10.3296 227.041 0.672391 218.828 0.539401L199.494 0.531128V16.7618V16.7619ZM205.75 4.58274L216.031 4.57348C218.746 4.42723 219.429 8.45922 216.179 8.52071C212.709 8.52077 209.222 8.56453 205.753 8.51952L205.75 4.58274ZM179.584 12.8658L179.592 10.384L179.589 10.2816L188.869 10.2632L189.397 10.2621L194.807 10.2514L194.797 6.88393L179.589 6.87523L179.593 6.76966L179.585 6.60178L179.553 4.3245L195.647 4.29026L195.653 1.46014L195.582 0.532843L173.274 0.499034L173.311 16.7782L192.703 16.7775L195.998 16.7596L195.989 12.8764L194.383 12.874L190.915 12.8748L179.584 12.8658V12.8658ZM57.3077 6.48471L56.8066 6.46933L56.8016 4.53979L56.8033 0.504516L54.8176 0.503938L50.5591 0.507213V16.7738L56.7229 16.745L56.8115 10.546L59.3963 10.5425L68.5985 16.7363L77.358 16.7727L77.1872 16.6195L65.1352 8.44414L76.1155 0.49903L67.863 0.502892L60.8496 5.65807L59.7888 6.48869L57.3077 6.48471Z" fill="white" stroke="#1D2B6B" stroke-width="0.176399" stroke-miterlimit="2.61313"/>
<path fill-rule="evenodd" clip-rule="evenodd" d="M133.968 31.3844H141.471C142.004 31.3755 142.508 31.2085 143.132 30.8339C143.569 30.5713 143.894 30.157 144.047 29.6694C144.214 29.1816 144.22 26.2232 144.112 25.6145C143.89 24.3725 142.591 23.9234 141.117 23.7718C139.748 23.6311 135.563 23.621 134.218 23.7718C132.802 23.9306 131.619 24.4047 131.33 25.7334C131.161 26.5125 131.209 29.0026 131.44 29.7279C131.775 30.7742 132.95 31.2931 133.968 31.3844H133.968ZM91.4024 31.2899L94.2703 31.3021V29.3792C95.3979 29.2765 96.8686 29.3586 98.0345 29.3564C99.1674 29.3994 99.8724 29.9891 100.011 31.3035L102.873 31.2884C102.358 28.9378 102.41 29.484 101.367 28.3699C102.829 28.1922 103.056 27.089 102.9 25.6178C102.737 24.0788 101.804 23.9735 100.237 23.8363C98.8446 23.7145 93.2229 23.8086 91.4047 23.8141L91.4024 31.2899ZM53.4768 31.3844H60.8775C61.7275 31.3107 62.4611 31.3732 62.9152 30.0943C63.1784 29.3529 63.0554 27.915 63.0492 27.0373L56.5828 27.0071L56.5867 28.5038L60.1772 28.5483C60.1582 29.7773 59.0758 29.4699 58.6955 29.5513C58.3421 29.627 57.8316 29.5597 56.454 29.5597C54.2847 29.5597 53.7613 29.8653 53.7591 27.494C53.7569 25.2333 54.5118 25.5437 56.5486 25.5439C57.3347 25.5441 58.1292 25.5322 58.9143 25.5418C60.362 25.5594 59.8547 26.0696 60.3286 26.3548H63.0074C62.8557 25.1626 62.9647 24.8103 62.4627 24.3993C61.1635 23.3357 54.6378 23.6391 53.2336 23.873C50.9117 24.2601 50.8117 25.3954 50.8109 27.7787C50.8105 28.7565 50.7534 29.683 51.3143 30.3785C52.005 31.2351 53.0411 31.3472 53.4768 31.3844H53.4768ZM212.896 31.2515L215.801 31.2822L215.822 29.4273C217.673 29.3898 220.225 29.4987 222.135 29.3365C224.512 29.0995 224.416 26.3968 224.021 25.2954C223.456 23.7224 221.145 23.8003 219.185 23.8004L212.896 23.8408L212.896 31.2515ZM175.168 31.3844H181.735C182.079 31.3928 184.267 31.051 184.309 28.8261C184.335 27.4689 184.341 25.1289 184.309 23.8016L181.498 23.8034L181.449 28.2581C181.433 29.7195 180.681 29.4374 178.455 29.4374C176.482 29.4374 175.442 29.756 175.412 28.0675L175.366 23.7898L172.53 23.8005L172.549 28.8894C172.68 31.155 174.645 31.3259 175.168 31.3844L175.168 31.3844ZM136.025 25.6645C135.113 25.7558 134.514 25.7924 134.286 26.6033C134.177 26.9935 134.166 27.8489 134.271 28.4651C134.408 29.2599 134.699 29.3224 135.488 29.4195C136.744 29.5743 138.754 29.4342 139.521 29.4382C140.526 29.4435 141.081 29.4052 141.192 28.4252C141.255 27.8686 141.296 27.1097 141.131 26.5647C140.951 25.9657 140.578 25.8404 139.998 25.728C138.798 25.4957 136.824 25.5845 136.025 25.6645L136.025 25.6645ZM94.27 27.4748L99.2676 27.4924C99.8357 27.4587 100.106 27.2332 100.131 26.6398C100.182 25.4028 98.7066 25.6658 97.6565 25.666L94.2724 25.6904L94.27 27.4748L94.27 27.4748ZM215.82 27.5727C216.895 27.5726 217.945 27.5725 218.996 27.5726C220.029 27.5727 221.205 27.8438 221.221 26.64C221.237 25.4478 220 25.6657 218.996 25.666L215.815 25.6661L215.82 27.5727Z" fill="white" stroke="#1D2B6B" stroke-width="0.176399" stroke-miterlimit="2.61313"/>
<path fill-rule="evenodd" clip-rule="evenodd" d="M4.11668 0.499069H35.6874C36.5311 0.501539 37.3396 0.839202 37.9362 1.4383C38.5328 2.0374 38.8691 2.84924 38.8716 3.69649V28.1872C38.8691 29.0345 38.5328 29.8463 37.9362 30.4454C37.3396 31.0445 36.5311 31.3822 35.6874 31.3847H4.11668C3.27294 31.3822 2.46446 31.0445 1.86784 30.4454C1.27122 29.8463 0.934957 29.0345 0.932495 28.1872V3.69649C0.934953 2.84924 1.27122 2.0374 1.86784 1.4383C2.46446 0.839199 3.27294 0.501537 4.11668 0.499069Z" fill="white"/>
<path fill-rule="evenodd" clip-rule="evenodd" d="M14.3183 13.748L13.8014 13.7321L13.7963 11.7421L13.798 7.58029L11.75 7.57967L7.35815 7.58305V24.3361V24.3595L13.7151 24.3297L13.8065 17.9365L16.4724 17.9329L25.9629 24.3209L34.997 24.3584L34.8209 24.2004L22.3911 15.7687L33.7155 7.57466L25.2043 7.57855L17.9711 12.8954L16.8771 13.7521L14.3183 13.748Z" fill="#111211"/>
</svg>
