<svg width="416" height="80" viewBox="0 0 416 80" fill="none" xmlns="http://www.w3.org/2000/svg">
<path d="M408 33.9897C408 38.7554 406.587 43.4141 403.939 47.3767C401.292 51.3393 397.529 54.4278 393.126 56.2516C388.723 58.0755 383.878 58.5528 379.204 57.6231C374.53 56.6935 370.236 54.3987 366.866 51.0289C363.496 47.6591 361.201 43.3657 360.272 38.6916C359.342 34.0176 359.819 29.1727 361.642 24.7697C363.466 20.3668 366.554 16.6035 370.517 13.9557C374.479 11.3079 379.138 9.89464 383.904 9.89453C387.068 9.89422 390.202 10.5172 393.125 11.728C396.049 12.9388 398.705 14.7136 400.943 16.9511C403.18 19.1886 404.955 21.8449 406.166 24.7685C407.377 27.692 408 30.8254 408 33.9897Z" fill="#E1001A"/>
<path d="M400.973 28.952H388.936V16.921H378.869V28.952H366.836V39.022H378.869V51.055H388.936V39.022H400.973V28.952Z" fill="white"/>
<path d="M8 41.8581L21.6981 41.0012C21.8457 42.8255 22.4704 44.5789 23.5095 46.0856C24.2678 47.0287 25.2402 47.7772 26.3458 48.2691C27.4515 48.7609 28.6586 48.9819 29.8668 48.9136C31.5738 49.0252 33.2629 48.511 34.6182 47.4674C35.1293 47.069 35.5445 46.561 35.8334 45.981C36.1222 45.4009 36.2774 44.7634 36.2874 44.1155C36.2744 43.4918 36.1254 42.8784 35.8507 42.3182C35.576 41.7581 35.1823 41.2647 34.6971 40.8725C33.6368 39.9212 31.1788 39.0214 27.3231 38.1731C21.0083 36.7519 16.5055 34.8662 13.8148 32.5161C12.5051 31.4182 11.4594 30.0394 10.7554 28.4821C10.0514 26.9249 9.70709 25.2291 9.74806 23.5205C9.7548 21.1026 10.4787 18.7411 11.8281 16.7348C13.3734 14.478 15.5533 12.7302 18.0921 11.7126C20.8765 10.4967 24.6953 9.8881 29.5483 9.88671C35.5021 9.88671 40.0415 10.9936 43.1666 13.2075C46.2934 15.4214 48.1532 18.9438 48.7459 23.7747L35.1722 24.5683C34.9924 22.8194 34.1862 21.1944 32.9023 19.9933C31.5259 18.9681 29.8321 18.4608 28.1188 18.5606C26.7715 18.4623 25.4325 18.8401 24.3353 19.6281C23.9394 19.9335 23.619 20.3257 23.3986 20.7744C23.1783 21.2232 23.064 21.7166 23.0644 22.2165C23.0768 22.6079 23.1775 22.9915 23.3591 23.3384C23.5408 23.6853 23.7986 23.9867 24.1133 24.2198C24.7917 24.8339 26.4022 25.4056 28.9445 25.9346C35.2376 27.2905 39.7455 28.6634 42.4684 30.0532C44.8962 31.1804 46.9561 32.9706 48.4108 35.2175C49.6572 37.2996 50.3008 39.6869 50.2698 42.1132C50.284 45.0527 49.4215 47.9296 47.7925 50.3764C46.0995 52.9312 43.6882 54.9277 40.8625 56.1144C37.2961 57.5268 33.4776 58.1914 29.6438 58.0668C21.7199 58.0668 16.2319 56.5415 13.1798 53.4907C10.0975 50.3712 8.25619 46.2361 8 41.8581Z" fill="white"/>
<path d="M67.1839 40.4917C67.1839 43.162 67.7455 45.1432 68.8687 46.4351C69.3876 47.0574 70.0399 47.5548 70.7774 47.8904C71.5148 48.2261 72.3183 48.3914 73.1284 48.374C73.8599 48.3792 74.5825 48.2138 75.2389 47.8909C75.8953 47.568 76.4674 47.0965 76.9098 46.5139C77.9264 45.2742 78.4351 43.172 78.4358 40.2074C78.4358 37.4717 77.9053 35.4639 76.8444 34.1841C76.3911 33.5854 75.805 33.1 75.1323 32.7662C74.4595 32.4325 73.7185 32.2594 72.9675 32.2607C72.177 32.2489 71.3943 32.4174 70.6786 32.7534C69.963 33.0893 69.3334 33.584 68.8375 34.1997C67.7358 35.4934 67.1846 37.5907 67.1839 40.4917H67.1839ZM54.2161 70.1133V23.5205H66.326V28.5105C67.5688 26.8029 69.1344 25.3557 70.9343 24.2508C72.8667 23.245 75.0177 22.7322 77.1961 22.758C79.2368 22.6692 81.2668 23.0974 83.0977 24.003C84.9286 24.9085 86.501 26.262 87.6689 27.9378C90.2304 31.7063 91.5267 36.1919 91.3704 40.7458C91.3704 46.3614 90.0252 50.6467 87.3349 53.6016C86.0594 55.0387 84.4855 56.1799 82.7232 56.9456C80.9609 57.7113 79.0526 58.0829 77.1318 58.0345C75.2653 58.0586 73.4125 57.7131 71.6801 57.0178C70.0196 56.3268 68.5207 55.2984 67.2783 53.9978V70.1133H54.2161Z" fill="white"/>
<path d="M119.377 37.4086C119.122 34.9094 118.449 33.1192 117.359 32.0378C116.712 31.4571 115.952 31.0158 115.127 30.7415C114.301 30.4672 113.429 30.3656 112.563 30.4432C111.696 30.5207 110.856 30.7757 110.092 31.1923C109.329 31.6089 108.66 32.1782 108.126 32.8646C107.225 34.2157 106.708 35.7864 106.632 37.4086H119.377ZM132.535 43.6082H106.6C106.682 45.2882 107.27 46.9042 108.285 48.2455C108.88 48.9585 109.631 49.5266 110.478 49.9067C111.326 50.2869 112.249 50.4691 113.178 50.4397C114.448 50.4403 115.697 50.1118 116.802 49.4863C117.678 48.9205 118.443 48.199 119.059 47.3575L131.804 48.5318C130.189 51.5817 127.743 54.1113 124.748 55.827C121.993 57.2991 118.042 58.035 112.894 58.0346C108.422 58.0346 104.904 57.4049 102.341 56.1455C99.6838 54.7971 97.4715 52.7113 95.9693 50.1378C94.2358 47.2137 93.3597 43.8611 93.4411 40.4628C93.4411 35.1854 95.1311 30.915 98.511 27.6516C101.891 24.3899 106.558 22.7587 112.511 22.7581C117.343 22.7581 121.158 23.4888 123.954 24.9501C126.692 26.354 128.925 28.5756 130.342 31.3065C131.934 34.6901 132.687 38.408 132.535 42.1445V43.6082Z" fill="white"/>
<path d="M161.145 44.052L173.445 45.4494C172.831 47.8858 171.691 50.1585 170.107 52.1087C168.511 54.0198 166.478 55.5188 164.181 56.4793C161.26 57.6087 158.141 58.1376 155.01 58.0344C151.997 58.101 148.988 57.7653 146.064 57.0364C143.797 56.4295 141.695 55.3225 139.913 53.7965C138.223 52.3395 136.85 50.5515 135.878 48.543C134.803 46.0174 134.303 43.2841 134.415 40.5414C134.312 37.5511 134.922 34.5793 136.196 31.8716C137.089 30.1451 138.295 28.6 139.754 27.3152C141.12 26.0594 142.689 25.0445 144.394 24.314C147.496 23.1789 150.787 22.6507 154.088 22.7579C159.598 22.7579 163.799 23.7424 166.691 25.7114C169.664 27.7973 171.816 30.8549 172.777 34.3573L160.604 35.9788C160.315 34.6816 159.578 33.5278 158.523 32.7202C157.322 31.9342 155.903 31.5506 154.47 31.6247C153.486 31.5922 152.508 31.7823 151.608 32.1809C150.709 32.5795 149.911 33.1763 149.274 33.9267C147.95 35.459 147.287 37.7793 147.288 40.8878C147.288 43.6609 147.944 45.7658 149.257 47.2026C149.887 47.905 150.663 48.4618 151.53 48.8344C152.397 49.207 153.335 49.3865 154.279 49.3605C155.809 49.4123 157.313 48.9535 158.554 48.0565C159.815 47.0255 160.721 45.6249 161.145 44.052" fill="white"/>
<path d="M177.36 23.5201H190.295V57.2727H177.36V23.5201ZM177.36 10.6799H190.295V19.4835H177.36V10.6799Z" fill="white"/>
<path d="M219.063 41.2562C217.284 41.8901 215.431 42.4516 213.501 42.941C210.874 43.6402 209.211 44.3287 208.512 45.0065C208.173 45.3153 207.902 45.6912 207.716 46.1104C207.53 46.5296 207.433 46.9829 207.431 47.4415C207.43 47.9001 207.524 48.354 207.707 48.7744C207.891 49.1948 208.159 49.5724 208.496 49.8834C209.381 50.5883 210.498 50.9343 211.626 50.8523C213.035 50.8603 214.421 50.499 215.646 49.8046C216.759 49.2308 217.676 48.3411 218.284 47.2473C218.85 46.0184 219.116 44.6733 219.063 43.3217L219.063 41.2562ZM207.844 34.4548L195.48 33.1518C195.806 31.334 196.492 29.5997 197.498 28.0508C198.504 26.7022 199.802 25.5988 201.296 24.8234C202.835 24.0541 204.488 23.5387 206.191 23.2974C208.418 22.9264 210.671 22.7459 212.928 22.7579C216.056 22.7007 219.184 22.919 222.273 23.4104C224.445 23.76 226.479 24.6999 228.152 26.1274C229.355 27.2319 230.252 28.6274 230.758 30.1796C231.367 31.7797 231.691 33.4743 231.713 35.1862V50.0909C231.683 51.3426 231.784 52.594 232.015 53.8246C232.326 55.0192 232.768 56.1758 233.333 57.273H221.192C220.815 56.6411 220.496 55.9761 220.24 55.2863C220.037 54.584 219.888 53.8671 219.795 53.1419C218.34 54.6085 216.626 55.7935 214.741 56.637C212.197 57.6152 209.488 58.0898 206.764 58.0344C202.738 58.0344 199.681 57.1025 197.593 55.2386C196.595 54.3909 195.797 53.3331 195.256 52.141C194.715 50.9489 194.444 49.6519 194.463 48.3428C194.374 46.0231 195.182 43.7582 196.72 42.0187C198.224 40.365 201 39.1357 205.047 38.3307C209.899 37.3565 213.045 36.6736 214.485 36.2818C216.038 35.8522 217.566 35.3372 219.063 34.7391C219.189 33.5407 218.835 32.341 218.077 31.4038C217.083 30.6628 215.846 30.3225 214.613 30.4504C212.961 30.3418 211.311 30.6937 209.847 31.4671C208.866 32.2127 208.161 33.264 207.844 34.4548" fill="white"/>
<path d="M250.377 10.6799H237.408V57.2727H250.377V10.6799Z" fill="white"/>
<path d="M256.608 23.5201H269.544V57.2727H256.608V23.5201ZM256.608 10.6799H269.544V19.4835H256.608V10.6799Z" fill="white"/>
<path d="M273.013 47.8962L285.853 46.6897C286.227 47.9906 287.006 49.1382 288.078 49.9648C289.22 50.6725 290.55 51.0152 291.892 50.9473C293.324 51.0365 294.744 50.6463 295.929 49.8382C296.27 49.6122 296.549 49.3057 296.743 48.9457C296.937 48.5858 297.039 48.1836 297.04 47.7748C297.035 47.3116 296.894 46.86 296.634 46.4764C296.375 46.0929 296.008 45.7943 295.579 45.618C293.778 44.9755 291.913 44.5282 290.016 44.2839C286.841 43.8199 283.71 43.093 280.656 42.1105C278.89 41.4291 277.356 40.2554 276.237 38.7285C275.051 37.1688 274.419 35.2578 274.443 33.2986C274.395 31.2148 275.082 29.1805 276.382 27.5513C277.784 25.8676 279.636 24.6179 281.722 23.9483C284.678 23.058 287.759 22.6561 290.843 22.7583C293.843 22.6406 296.844 22.9501 299.757 23.6775C301.566 24.2275 303.213 25.2099 304.557 26.5397C305.972 28.0489 307.06 29.8348 307.751 31.7849L295.484 32.9915C295.25 32.0351 294.687 31.1914 293.895 30.6075C292.795 29.9067 291.511 29.5524 290.208 29.5908C289.087 29.4998 287.967 29.7723 287.013 30.3678C286.707 30.5797 286.457 30.862 286.282 31.1909C286.108 31.5199 286.016 31.8858 286.012 32.258C286.012 32.6613 286.133 33.0553 286.36 33.3889C286.586 33.7224 286.908 33.9801 287.283 34.1285C289.065 34.7628 290.926 35.1479 292.814 35.2728C296.088 35.5307 299.314 36.2135 302.412 37.304C304.346 38.0436 306.02 39.3347 307.226 41.017C308.32 42.5679 308.904 44.4214 308.895 46.3193C308.871 48.3449 308.259 50.3198 307.132 52.0033C305.767 53.9991 303.827 55.5325 301.569 56.4C298.263 57.6227 294.747 58.1784 291.225 58.035C285.058 58.035 280.666 57.1563 278.05 55.3989C275.447 53.6604 273.637 50.9636 273.013 47.8963" fill="white"/>
<path d="M328.16 10.6801V23.5203H335.279V32.991H328.16V44.9515C328.081 45.9214 328.222 46.8967 328.573 47.8044C328.809 48.1714 329.142 48.4661 329.534 48.6561C329.927 48.8461 330.365 48.924 330.799 48.8812C332.166 48.8018 333.515 48.525 334.803 48.0596L335.756 56.9866C332.815 57.6558 329.811 58.0071 326.795 58.0344C323.571 58.0344 321.198 57.6219 319.675 56.7968C318.147 55.9708 316.951 54.6423 316.291 53.0361C315.559 51.3544 315.193 48.6305 315.193 44.8643V32.991H310.425V23.5203H315.193V17.3238L328.16 10.6801Z" fill="white"/>
</svg>
