<svg width="168" height="128" viewBox="0 0 168 128" fill="none" xmlns="http://www.w3.org/2000/svg">
<path fill-rule="evenodd" clip-rule="evenodd" d="M55.0902 100.756C54.8061 100.439 54.4551 100.189 54.0626 100.024C53.67 99.8596 53.2458 99.7844 52.8206 99.8041C52.4041 99.7876 51.9894 99.8666 51.6081 100.035C51.2267 100.203 50.8889 100.456 50.6204 100.775C50.0761 101.754 49.7897 102.855 49.7879 103.975C49.7862 105.095 50.0693 106.197 50.6106 107.178C50.9009 107.483 51.2499 107.726 51.6366 107.893C52.0233 108.06 52.4398 108.147 52.861 108.149C53.2823 108.151 53.6995 108.067 54.0877 107.904C54.4759 107.74 54.827 107.5 55.12 107.198C55.7576 106.181 56.04 104.982 55.9228 103.788C56.015 102.71 55.7197 101.635 55.0902 100.756ZM87.7364 100.756C87.4529 100.438 87.102 100.187 86.7093 100.023C86.3166 99.8582 85.8921 99.7834 85.4668 99.8041C85.0503 99.7876 84.6355 99.8666 84.2542 100.035C83.8729 100.203 83.5351 100.456 83.2666 100.775C82.7223 101.754 82.4358 102.855 82.4341 103.975C82.4324 105.095 82.7154 106.197 83.2567 107.178C83.5341 107.499 83.8806 107.753 84.2702 107.921C84.6598 108.09 85.0824 108.167 85.5064 108.149C85.9307 108.174 86.355 108.101 86.7468 107.936C87.1385 107.771 87.4872 107.518 87.7661 107.198C88.4037 106.181 88.6861 104.982 88.5689 103.788C88.6611 102.71 88.3659 101.635 87.7364 100.756ZM4 90.6281V117.275H164V90.6281H4ZM24.3667 100.24H19.7482V111.291H15.2091V100.24H10.5907V96.6227H24.3667L24.3667 100.24ZM59.5897 108.06C59.4759 108.272 59.3502 108.477 59.2131 108.674C58.6687 109.486 57.9381 110.155 57.0823 110.627C55.8258 111.277 54.4226 111.591 53.0089 111.538C51.6001 111.584 50.1987 111.317 48.9058 110.755C47.9477 110.281 47.1309 109.563 46.5371 108.674C46.438 108.535 46.3488 108.397 46.2597 108.248C45.5436 106.938 45.1943 105.459 45.2487 103.967C45.1597 102.135 45.7136 100.329 46.8147 98.8625C46.9494 98.6883 47.095 98.5227 47.2508 98.367C47.9987 97.6757 48.8783 97.1422 49.8369 96.7983C50.7956 96.4543 51.8137 96.307 52.8305 96.365C53.8561 96.3009 54.884 96.4424 55.8541 96.7811C56.8242 97.1198 57.7169 97.6488 58.4797 98.3373C58.6453 98.5029 58.8008 98.6783 58.9455 98.8625C60.0127 100.295 60.5487 102.054 60.4619 103.838C60.5165 105.295 60.2172 106.744 59.5897 108.06ZM92.2359 108.06C92.1257 108.274 91.9998 108.479 91.8593 108.674C91.3186 109.485 90.5913 110.155 89.7384 110.627C88.4788 111.278 87.0721 111.592 85.6551 111.538C84.2464 111.584 82.8449 111.317 81.5521 110.755C80.595 110.283 79.7809 109.565 79.1933 108.674C79.0942 108.535 79.005 108.397 78.9158 108.248C78.1963 106.939 77.8436 105.46 77.895 103.967C77.806 102.135 78.3599 100.329 79.4609 98.8625C79.599 98.6881 79.748 98.5226 79.9069 98.367C80.6524 97.6751 81.5301 97.141 82.4873 96.797C83.4445 96.453 84.4613 96.306 85.4768 96.365C86.5024 96.3001 87.5306 96.4411 88.5008 96.7798C89.471 97.1185 90.3636 97.6481 91.1259 98.3373C91.2915 98.5029 91.4471 98.6783 91.5917 98.8625C92.6589 100.295 93.195 102.054 93.1081 103.838C93.1627 105.295 92.8634 106.744 92.2359 108.06ZM126.21 111.291H114.605V96.6227H119.134V107.673H126.21V111.291ZM157.251 108.605C157.241 108.63 157.228 108.653 157.211 108.674C157.138 108.825 157.055 108.971 156.963 109.11C156.43 109.916 155.672 110.547 154.783 110.924C153.657 111.367 152.454 111.576 151.245 111.538C148.757 111.538 147.023 111.063 146.061 110.101C145.647 109.683 145.303 109.201 145.041 108.674C144.695 107.974 144.49 107.213 144.436 106.434L148.747 106.167C148.79 106.744 148.988 107.299 149.322 107.772C149.56 108.069 149.867 108.305 150.215 108.458C150.564 108.612 150.944 108.679 151.324 108.654C151.86 108.688 152.39 108.53 152.821 108.208C152.978 108.079 153.105 107.917 153.194 107.734C153.283 107.551 153.331 107.351 153.336 107.148C153.334 106.952 153.288 106.759 153.202 106.582C153.117 106.406 152.993 106.25 152.84 106.127C152.136 105.676 151.341 105.386 150.511 105.275C148.975 105.022 147.52 104.415 146.26 103.501C145.849 103.154 145.52 102.719 145.299 102.228C145.078 101.738 144.969 101.204 144.981 100.666C144.982 100.035 145.142 99.4148 145.447 98.8625C145.5 98.7428 145.566 98.6297 145.645 98.5256C146.126 97.8129 146.81 97.2607 147.608 96.9398C148.761 96.5131 149.987 96.3178 151.215 96.365C152.719 96.2708 154.216 96.6372 155.506 97.4156C156.029 97.787 156.448 98.2849 156.726 98.8625C157.001 99.4333 157.179 100.046 157.251 100.676C157.26 100.698 157.263 100.722 157.261 100.746H157.251L152.989 100.993C152.938 100.442 152.683 99.9303 152.276 99.5563C151.844 99.2288 151.31 99.067 150.769 99.1004C150.345 99.0681 149.924 99.1876 149.58 99.4374C149.455 99.5328 149.355 99.656 149.286 99.797C149.217 99.938 149.182 100.093 149.183 100.25C149.185 100.374 149.215 100.496 149.271 100.606C149.328 100.716 149.41 100.812 149.51 100.884C149.971 101.17 150.489 101.353 151.027 101.42C152.493 101.685 153.923 102.121 155.288 102.718C156.051 103.076 156.699 103.639 157.162 104.343L157.251 104.522C157.582 105.133 157.753 105.818 157.746 106.514C157.749 107.24 157.58 107.957 157.251 108.605Z" fill="#E4002B"/>
<path fill-rule="evenodd" clip-rule="evenodd" d="M23.426 45.9482H36.9948C40.3526 45.9482 42.4081 45.1605 43.1613 43.585C43.9455 41.4125 44.295 39.1071 44.1898 36.7998C44.3236 34.2482 43.939 31.6959 43.0593 29.297C42.306 27.6514 39.9762 26.829 36.0699 26.8301H23.426V45.9482ZM4 79.7659V11H39.5468C48.4045 11 54.7432 12.4734 58.5629 15.4203C62.3321 18.3667 64.2165 24.4657 64.2159 33.7173C64.342 37.9287 63.7927 42.1332 62.5888 46.1709C61.4072 49.374 57.6323 51.6641 51.2643 53.0412V53.7774C55.5129 53.9661 58.6655 55.1936 60.722 57.4599C62.7265 59.7908 63.7256 63.046 63.7195 67.2256V79.7659H43.7614V70.6003C43.8736 68.281 43.346 65.9755 42.2364 63.9358C41.1228 62.3598 39.0673 61.572 36.0699 61.5726H23.426V79.7659H4ZM164 11V79.7659H144.88L146.114 29.0897L129.771 79.6622L129.65 79.7659H112.622L95.5605 28.1664L96.9803 79.6622L97.084 79.7659H77.9657V11H107.98L120.811 53.7604L133.265 11H164H164Z" fill="white"/>
</svg>
