<svg width="186" height="126" viewBox="0 0 186 126" fill="none" xmlns="http://www.w3.org/2000/svg">
<path fill-rule="evenodd" clip-rule="evenodd" d="M77.0902 108.756C76.8061 108.439 76.4551 108.189 76.0626 108.024C75.67 107.86 75.2458 107.784 74.8206 107.804C74.4041 107.788 73.9894 107.867 73.6081 108.035C73.2267 108.203 72.8889 108.456 72.6204 108.775C72.0761 109.754 71.7897 110.855 71.7879 111.975C71.7862 113.095 72.0693 114.197 72.6106 115.178C72.9009 115.483 73.2499 115.726 73.6366 115.893C74.0233 116.06 74.4398 116.147 74.861 116.149C75.2823 116.151 75.6995 116.067 76.0877 115.904C76.4759 115.74 76.827 115.5 77.12 115.198C77.7576 114.181 78.04 112.982 77.9228 111.788C78.015 110.71 77.7197 109.635 77.0902 108.756ZM109.736 108.756C109.453 108.438 109.102 108.187 108.709 108.023C108.317 107.858 107.892 107.783 107.467 107.804C107.05 107.788 106.636 107.867 106.254 108.035C105.873 108.203 105.535 108.456 105.267 108.775C104.722 109.754 104.436 110.855 104.434 111.975C104.432 113.095 104.715 114.197 105.257 115.178C105.534 115.499 105.881 115.753 106.27 115.921C106.66 116.09 107.082 116.167 107.506 116.149C107.931 116.174 108.355 116.101 108.747 115.936C109.139 115.771 109.487 115.518 109.766 115.198C110.404 114.181 110.686 112.982 110.569 111.788C110.661 110.71 110.366 109.635 109.736 108.756ZM26 98.6281V125.275H186V98.6281H26ZM46.3667 108.24H41.7482V119.291H37.2091V108.24H32.5907V104.623H46.3667L46.3667 108.24ZM81.5897 116.06C81.4759 116.272 81.3502 116.477 81.2131 116.674C80.6687 117.486 79.9381 118.155 79.0823 118.627C77.8258 119.277 76.4226 119.591 75.0089 119.538C73.6001 119.584 72.1987 119.317 70.9058 118.755C69.9477 118.281 69.1309 117.563 68.5371 116.674C68.438 116.535 68.3488 116.397 68.2597 116.248C67.5436 114.938 67.1943 113.459 67.2487 111.967C67.1597 110.135 67.7136 108.329 68.8147 106.863C68.9494 106.688 69.095 106.523 69.2508 106.367C69.9987 105.676 70.8783 105.142 71.8369 104.798C72.7956 104.454 73.8137 104.307 74.8305 104.365C75.8561 104.301 76.884 104.442 77.8541 104.781C78.8242 105.12 79.7169 105.649 80.4797 106.337C80.6453 106.503 80.8008 106.678 80.9455 106.863C82.0127 108.295 82.5487 110.054 82.4619 111.838C82.5165 113.295 82.2172 114.744 81.5897 116.06ZM114.236 116.06C114.126 116.274 114 116.479 113.859 116.674C113.319 117.485 112.591 118.155 111.738 118.627C110.479 119.278 109.072 119.592 107.655 119.538C106.246 119.584 104.845 119.317 103.552 118.755C102.595 118.283 101.781 117.565 101.193 116.674C101.094 116.535 101.005 116.397 100.916 116.248C100.196 114.939 99.8436 113.46 99.895 111.967C99.806 110.135 100.36 108.329 101.461 106.863C101.599 106.688 101.748 106.523 101.907 106.367C102.652 105.675 103.53 105.141 104.487 104.797C105.444 104.453 106.461 104.306 107.477 104.365C108.502 104.3 109.531 104.441 110.501 104.78C111.471 105.119 112.364 105.648 113.126 106.337C113.292 106.503 113.447 106.678 113.592 106.863C114.659 108.295 115.195 110.054 115.108 111.838C115.163 113.295 114.863 114.744 114.236 116.06ZM148.21 119.291H136.605V104.623H141.134V115.673H148.21V119.291ZM179.251 116.605C179.241 116.63 179.228 116.653 179.211 116.674C179.138 116.825 179.055 116.971 178.963 117.11C178.43 117.916 177.672 118.547 176.783 118.924C175.657 119.367 174.454 119.576 173.245 119.538C170.757 119.538 169.023 119.063 168.061 118.101C167.647 117.683 167.303 117.201 167.041 116.674C166.695 115.974 166.49 115.213 166.436 114.434L170.747 114.167C170.79 114.744 170.988 115.299 171.322 115.772C171.56 116.069 171.867 116.305 172.215 116.458C172.564 116.612 172.944 116.679 173.324 116.654C173.86 116.688 174.39 116.53 174.821 116.208C174.978 116.079 175.105 115.917 175.194 115.734C175.283 115.551 175.331 115.351 175.336 115.148C175.334 114.952 175.288 114.759 175.202 114.582C175.117 114.406 174.993 114.25 174.84 114.127C174.136 113.676 173.341 113.386 172.511 113.275C170.975 113.022 169.52 112.415 168.26 111.501C167.849 111.154 167.52 110.719 167.299 110.228C167.078 109.738 166.969 109.204 166.981 108.666C166.982 108.035 167.142 107.415 167.447 106.863C167.5 106.743 167.566 106.63 167.645 106.526C168.126 105.813 168.81 105.261 169.608 104.94C170.761 104.513 171.987 104.318 173.215 104.365C174.719 104.271 176.216 104.637 177.506 105.416C178.029 105.787 178.448 106.285 178.726 106.863C179.001 107.433 179.179 108.046 179.251 108.676C179.26 108.698 179.263 108.722 179.261 108.746H179.251L174.989 108.993C174.938 108.442 174.683 107.93 174.276 107.556C173.844 107.229 173.31 107.067 172.769 107.1C172.345 107.068 171.924 107.188 171.58 107.437C171.455 107.533 171.355 107.656 171.286 107.797C171.217 107.938 171.182 108.093 171.183 108.25C171.185 108.374 171.215 108.496 171.271 108.606C171.328 108.716 171.41 108.812 171.51 108.884C171.971 109.17 172.489 109.353 173.027 109.42C174.493 109.685 175.923 110.121 177.288 110.718C178.051 111.076 178.699 111.639 179.162 112.343L179.251 112.522C179.582 113.133 179.753 113.818 179.746 114.514C179.749 115.24 179.58 115.957 179.251 116.605Z" fill="#E4002B"/>
<path fill-rule="evenodd" clip-rule="evenodd" d="M45.426 53.9482H58.9948C62.3526 53.9482 64.4081 53.1605 65.1613 51.585C65.9455 49.4125 66.295 47.1071 66.1898 44.7998C66.3236 42.2482 65.939 39.6959 65.0593 37.297C64.306 35.6514 61.9762 34.829 58.0699 34.8301H45.426V53.9482ZM26 87.7659V19H61.5468C70.4045 19 76.7432 20.4734 80.5629 23.4203C84.3321 26.3667 86.2165 32.4657 86.2159 41.7173C86.342 45.9287 85.7927 50.1332 84.5888 54.1709C83.4072 57.374 79.6323 59.6641 73.2643 61.0412V61.7774C77.5129 61.9661 80.6655 63.1936 82.722 65.4599C84.7265 67.7908 85.7256 71.046 85.7195 75.2256V87.7659H65.7614V78.6003C65.8736 76.281 65.346 73.9755 64.2364 71.9358C63.1228 70.3598 61.0673 69.572 58.0699 69.5726H45.426V87.7659H26ZM186 19V87.7659H166.88L168.114 37.0897L151.771 87.6622L151.65 87.7659H134.622L117.56 36.1664L118.98 87.6622L119.084 87.7659H99.9657V19H129.98L142.811 61.7604L155.265 19H186H186Z" fill="white"/>
<path fill-rule="evenodd" clip-rule="evenodd" d="M77.0902 108.756C76.8061 108.439 76.4551 108.189 76.0626 108.024C75.67 107.86 75.2458 107.784 74.8206 107.804C74.4041 107.788 73.9894 107.867 73.6081 108.035C73.2267 108.203 72.8889 108.456 72.6204 108.775C72.0761 109.754 71.7897 110.855 71.7879 111.975C71.7862 113.095 72.0693 114.197 72.6106 115.178C72.9009 115.483 73.2499 115.726 73.6366 115.893C74.0233 116.06 74.4398 116.147 74.861 116.149C75.2823 116.151 75.6995 116.067 76.0877 115.904C76.4759 115.74 76.827 115.5 77.12 115.198C77.7576 114.181 78.04 112.982 77.9228 111.788C78.015 110.71 77.7197 109.635 77.0902 108.756ZM109.736 108.756C109.453 108.438 109.102 108.187 108.709 108.023C108.317 107.858 107.892 107.783 107.467 107.804C107.05 107.788 106.636 107.867 106.254 108.035C105.873 108.203 105.535 108.456 105.267 108.775C104.722 109.754 104.436 110.855 104.434 111.975C104.432 113.095 104.715 114.197 105.257 115.178C105.534 115.499 105.881 115.753 106.27 115.921C106.66 116.09 107.082 116.167 107.506 116.149C107.931 116.174 108.355 116.101 108.747 115.936C109.139 115.771 109.487 115.518 109.766 115.198C110.404 114.181 110.686 112.982 110.569 111.788C110.661 110.71 110.366 109.635 109.736 108.756ZM26 98.6281V125.275H186V98.6281H26ZM46.3667 108.24H41.7482V119.291H37.2091V108.24H32.5907V104.623H46.3667L46.3667 108.24ZM81.5897 116.06C81.4759 116.272 81.3502 116.477 81.2131 116.674C80.6687 117.486 79.9381 118.155 79.0823 118.627C77.8258 119.277 76.4226 119.591 75.0089 119.538C73.6001 119.584 72.1987 119.317 70.9058 118.755C69.9477 118.281 69.1309 117.563 68.5371 116.674C68.438 116.535 68.3488 116.397 68.2597 116.248C67.5436 114.938 67.1943 113.459 67.2487 111.967C67.1597 110.135 67.7136 108.329 68.8147 106.863C68.9494 106.688 69.095 106.523 69.2508 106.367C69.9987 105.676 70.8783 105.142 71.8369 104.798C72.7956 104.454 73.8137 104.307 74.8305 104.365C75.8561 104.301 76.884 104.442 77.8541 104.781C78.8242 105.12 79.7169 105.649 80.4797 106.337C80.6453 106.503 80.8008 106.678 80.9455 106.863C82.0127 108.295 82.5487 110.054 82.4619 111.838C82.5165 113.295 82.2172 114.744 81.5897 116.06ZM114.236 116.06C114.126 116.274 114 116.479 113.859 116.674C113.319 117.485 112.591 118.155 111.738 118.627C110.479 119.278 109.072 119.592 107.655 119.538C106.246 119.584 104.845 119.317 103.552 118.755C102.595 118.283 101.781 117.565 101.193 116.674C101.094 116.535 101.005 116.397 100.916 116.248C100.196 114.939 99.8436 113.46 99.895 111.967C99.806 110.135 100.36 108.329 101.461 106.863C101.599 106.688 101.748 106.523 101.907 106.367C102.652 105.675 103.53 105.141 104.487 104.797C105.444 104.453 106.461 104.306 107.477 104.365C108.502 104.3 109.531 104.441 110.501 104.78C111.471 105.119 112.364 105.648 113.126 106.337C113.292 106.503 113.447 106.678 113.592 106.863C114.659 108.295 115.195 110.054 115.108 111.838C115.163 113.295 114.863 114.744 114.236 116.06ZM148.21 119.291H136.605V104.623H141.134V115.673H148.21V119.291ZM179.251 116.605C179.241 116.63 179.228 116.653 179.211 116.674C179.138 116.825 179.055 116.971 178.963 117.11C178.43 117.916 177.672 118.547 176.783 118.924C175.657 119.367 174.454 119.576 173.245 119.538C170.757 119.538 169.023 119.063 168.061 118.101C167.647 117.683 167.303 117.201 167.041 116.674C166.695 115.974 166.49 115.213 166.436 114.434L170.747 114.167C170.79 114.744 170.988 115.299 171.322 115.772C171.56 116.069 171.867 116.305 172.215 116.458C172.564 116.612 172.944 116.679 173.324 116.654C173.86 116.688 174.39 116.53 174.821 116.208C174.978 116.079 175.105 115.917 175.194 115.734C175.283 115.551 175.331 115.351 175.336 115.148C175.334 114.952 175.288 114.759 175.202 114.582C175.117 114.406 174.993 114.25 174.84 114.127C174.136 113.676 173.341 113.386 172.511 113.275C170.975 113.022 169.52 112.415 168.26 111.501C167.849 111.154 167.52 110.719 167.299 110.228C167.078 109.738 166.969 109.204 166.981 108.666C166.982 108.035 167.142 107.415 167.447 106.863C167.5 106.743 167.566 106.63 167.645 106.526C168.126 105.813 168.81 105.261 169.608 104.94C170.761 104.513 171.987 104.318 173.215 104.365C174.719 104.271 176.216 104.637 177.506 105.416C178.029 105.787 178.448 106.285 178.726 106.863C179.001 107.433 179.179 108.046 179.251 108.676C179.26 108.698 179.263 108.722 179.261 108.746H179.251L174.989 108.993C174.938 108.442 174.683 107.93 174.276 107.556C173.844 107.229 173.31 107.067 172.769 107.1C172.345 107.068 171.924 107.188 171.58 107.437C171.455 107.533 171.355 107.656 171.286 107.797C171.217 107.938 171.182 108.093 171.183 108.25C171.185 108.374 171.215 108.496 171.271 108.606C171.328 108.716 171.41 108.812 171.51 108.884C171.971 109.17 172.489 109.353 173.027 109.42C174.493 109.685 175.923 110.121 177.288 110.718C178.051 111.076 178.699 111.639 179.162 112.343L179.251 112.522C179.582 113.133 179.753 113.818 179.746 114.514C179.749 115.24 179.58 115.957 179.251 116.605Z" fill="#E4002B"/>
<path fill-rule="evenodd" clip-rule="evenodd" d="M45.426 53.9482H58.9948C62.3526 53.9482 64.4081 53.1605 65.1613 51.585C65.9455 49.4125 66.295 47.1071 66.1898 44.7998C66.3236 42.2482 65.939 39.6959 65.0593 37.297C64.306 35.6514 61.9762 34.829 58.0699 34.8301H45.426V53.9482ZM26 87.7659V19H61.5468C70.4045 19 76.7432 20.4734 80.5629 23.4203C84.3321 26.3667 86.2165 32.4657 86.2159 41.7173C86.342 45.9287 85.7927 50.1332 84.5888 54.1709C83.4072 57.374 79.6323 59.6641 73.2643 61.0412V61.7774C77.5129 61.9661 80.6655 63.1936 82.722 65.4599C84.7265 67.7908 85.7256 71.046 85.7195 75.2256V87.7659H65.7614V78.6003C65.8736 76.281 65.346 73.9755 64.2364 71.9358C63.1228 70.3598 61.0673 69.572 58.0699 69.5726H45.426V87.7659H26ZM186 19V87.7659H166.88L168.114 37.0897L151.771 87.6622L151.65 87.7659H134.622L117.56 36.1664L118.98 87.6622L119.084 87.7659H99.9657V19H129.98L142.811 61.7604L155.265 19H186H186Z" fill="white"/>
</svg>
