<svg width="216" height="160" viewBox="0 0 216 160" fill="none" xmlns="http://www.w3.org/2000/svg">
<path d="M189.015 106.985H26.9853V133.971H189.015V106.985Z" fill="white"/>
<path fill-rule="evenodd" clip-rule="evenodd" d="M78.7235 117.241C78.4358 116.92 78.0804 116.667 77.6829 116.5C77.2854 116.334 76.8557 116.258 76.4252 116.278C76.0034 116.261 75.5834 116.341 75.1972 116.511C74.8111 116.682 74.469 116.938 74.1971 117.261C73.6459 118.252 73.3558 119.367 73.354 120.502C73.3523 121.636 73.6389 122.752 74.1871 123.745C74.4811 124.054 74.8345 124.3 75.2261 124.469C75.6178 124.638 76.0395 124.726 76.4661 124.728C76.8927 124.73 77.3152 124.646 77.7083 124.48C78.1014 124.315 78.457 124.071 78.7537 123.765C79.3994 122.736 79.6853 121.521 79.5667 120.312C79.66 119.221 79.3611 118.132 78.7235 117.241ZM111.784 117.241C111.497 116.919 111.141 116.666 110.744 116.499C110.346 116.332 109.916 116.257 109.485 116.278C109.064 116.261 108.644 116.341 108.257 116.511C107.871 116.682 107.529 116.938 107.257 117.261C106.706 118.252 106.416 119.368 106.414 120.502C106.413 121.636 106.699 122.752 107.247 123.745C107.528 124.07 107.879 124.327 108.274 124.498C108.668 124.668 109.096 124.747 109.526 124.728C109.955 124.753 110.385 124.679 110.782 124.512C111.178 124.345 111.531 124.09 111.814 123.765C112.46 122.736 112.746 121.521 112.627 120.312C112.72 119.221 112.421 118.132 111.784 117.241ZM26.9853 106.985V133.971H189.015V106.985H26.9853ZM47.6103 116.719H42.9333V127.91H38.3366V116.719H33.6596V113.056H47.6103L47.6103 116.719ZM83.2801 124.638C83.1649 124.852 83.0375 125.06 82.8987 125.26C82.3474 126.082 81.6075 126.76 80.7409 127.237C79.4685 127.896 78.0475 128.214 76.6159 128.161C75.1892 128.207 73.77 127.936 72.4607 127.368C71.4905 126.887 70.6633 126.161 70.062 125.26C69.9616 125.12 69.8713 124.979 69.781 124.829C69.0558 123.502 68.7021 122.004 68.7572 120.493C68.6671 118.638 69.228 116.809 70.343 115.324C70.4795 115.148 70.627 114.98 70.7846 114.822C71.5421 114.122 72.4328 113.582 73.4036 113.234C74.3745 112.885 75.4055 112.736 76.4352 112.795C77.4737 112.73 78.5148 112.873 79.4972 113.216C80.4796 113.559 81.3835 114.095 82.156 114.792C82.3237 114.96 82.4812 115.138 82.6277 115.324C83.7085 116.775 84.2513 118.556 84.1633 120.362C84.2186 121.838 83.9156 123.305 83.2801 124.638ZM116.34 124.638C116.229 124.855 116.101 125.063 115.959 125.26C115.411 126.082 114.675 126.76 113.811 127.237C112.536 127.897 111.111 128.215 109.676 128.161C108.25 128.207 106.83 127.936 105.521 127.368C104.552 126.89 103.727 126.162 103.132 125.26C103.032 125.12 102.942 124.979 102.851 124.829C102.123 123.503 101.766 122.005 101.818 120.493C101.727 118.638 102.288 116.809 103.403 115.324C103.543 115.148 103.694 114.98 103.855 114.822C104.61 114.122 105.499 113.581 106.468 113.232C107.437 112.884 108.467 112.735 109.496 112.795C110.534 112.729 111.575 112.872 112.558 113.215C113.54 113.558 114.444 114.094 115.216 114.792C115.384 114.96 115.542 115.138 115.688 115.324C116.769 116.775 117.312 118.556 117.224 120.362C117.279 121.838 116.976 123.305 116.34 124.638ZM150.746 127.91H138.993V113.056H143.579V124.247H150.746V127.91ZM182.18 125.19C182.17 125.215 182.157 125.239 182.14 125.26C182.066 125.413 181.982 125.56 181.889 125.702C181.349 126.518 180.581 127.156 179.681 127.539C178.541 127.987 177.322 128.198 176.098 128.161C173.579 128.161 171.822 127.679 170.849 126.706C170.429 126.282 170.08 125.794 169.815 125.26C169.465 124.551 169.257 123.781 169.203 122.992L173.569 122.721C173.611 123.306 173.813 123.868 174.151 124.347C174.392 124.648 174.702 124.886 175.055 125.042C175.408 125.197 175.793 125.265 176.178 125.24C176.721 125.274 177.258 125.114 177.694 124.789C177.853 124.658 177.982 124.494 178.072 124.308C178.162 124.123 178.211 123.921 178.215 123.715C178.213 123.516 178.167 123.32 178.08 123.142C177.994 122.963 177.868 122.806 177.714 122.681C177 122.224 176.195 121.93 175.355 121.818C173.8 121.562 172.325 120.947 171.049 120.021C170.633 119.67 170.301 119.229 170.077 118.733C169.853 118.236 169.743 117.696 169.755 117.151C169.755 116.512 169.917 115.883 170.226 115.324C170.28 115.203 170.347 115.088 170.427 114.983C170.914 114.261 171.607 113.702 172.414 113.377C173.582 112.945 174.824 112.747 176.068 112.795C177.591 112.699 179.107 113.071 180.413 113.859C180.942 114.235 181.367 114.739 181.648 115.324C181.927 115.902 182.107 116.523 182.18 117.161C182.189 117.183 182.192 117.207 182.19 117.231H182.18L177.864 117.482C177.812 116.924 177.555 116.405 177.142 116.027C176.705 115.695 176.163 115.531 175.616 115.565C175.187 115.532 174.76 115.653 174.412 115.906C174.286 116.003 174.184 116.128 174.114 116.27C174.044 116.413 174.009 116.57 174.01 116.729C174.011 116.855 174.042 116.978 174.099 117.09C174.157 117.201 174.24 117.298 174.341 117.372C174.808 117.661 175.332 117.846 175.877 117.914C177.362 118.182 178.81 118.623 180.193 119.228C180.965 119.591 181.621 120.161 182.09 120.874L182.18 121.055C182.516 121.674 182.688 122.368 182.682 123.072C182.685 123.808 182.513 124.534 182.18 125.19Z" fill="#E4002B"/>
<path fill-rule="evenodd" clip-rule="evenodd" d="M46.6577 61.421H60.3986C63.799 61.421 65.8806 60.6233 66.6433 59.0278C67.4375 56.8277 67.7914 54.4931 67.6849 52.1565C67.8204 49.5725 67.4309 46.9879 66.54 44.5585C65.7772 42.892 63.4179 42.0593 59.462 42.0603H46.6577V61.421ZM26.9853 95.6676V26.0295H62.9829C71.953 26.0295 78.3721 27.5216 82.2403 30.5059C86.0573 33.4896 87.9656 39.666 87.965 49.0349C88.0927 53.2998 87.5364 57.5576 86.3173 61.6465C85.1206 64.8902 81.2979 67.2094 74.8491 68.6039V69.3494C79.1516 69.5406 82.3442 70.7836 84.4268 73.0787C86.4567 75.4391 87.4685 78.7356 87.4623 82.9682V95.6676H67.251V86.3858C67.3647 84.0371 66.8304 81.7023 65.7067 79.6367C64.579 78.0407 62.4974 77.2429 59.462 77.2435H46.6577V95.6676H26.9853ZM189.015 26.0295V95.6676H169.652L170.902 44.3486L154.352 95.5626L154.229 95.6676H136.985L119.707 43.4136L121.145 95.5626L121.25 95.6676H101.889V26.0295H132.284L145.278 69.3322L157.89 26.0295H189.015H189.015Z" fill="white"/>
</svg>
