<svg width="250" height="182" viewBox="0 0 250 182" fill="none" xmlns="http://www.w3.org/2000/svg">
<path d="M127.818 96.2636C127.881 96.7172 127.914 97.1743 127.917 97.6321C127.917 100.415 126.809 103.085 124.838 105.053C122.866 107.021 120.192 108.126 117.403 108.126C114.614 108.126 111.94 107.021 109.968 105.053C107.996 103.085 106.889 100.415 106.889 97.6321C106.892 97.1743 106.925 96.7171 106.987 96.2636H44.0845C44.0825 103.986 45.3061 111.66 47.7096 119L48.7532 121.985C52.124 130.928 57.2173 139.125 63.7455 146.113L65.9442 148.379C71.6754 154.024 78.2963 158.69 85.5426 162.193L88.4354 163.505C96.8993 167.132 105.974 169.13 115.182 169.392L118.347 169.424C127.353 169.319 136.262 167.553 144.624 164.214L147.534 162.976C154.996 159.61 161.842 155.021 167.787 149.4L167.658 149.487L169.957 147.265C176.713 140.336 182.026 132.14 185.589 123.149L186.693 120.18C189.36 112.487 190.72 104.404 190.718 96.2636H127.818ZM63.8747 118.444C63.6237 118.444 63.3784 118.37 63.1697 118.231C62.9609 118.092 62.7982 117.894 62.7021 117.662C62.606 117.431 62.5807 117.176 62.6296 116.931C62.6784 116.685 62.7992 116.459 62.9766 116.282C63.1539 116.105 63.38 115.984 63.6261 115.935C63.8722 115.886 64.1274 115.911 64.3593 116.007C64.5912 116.102 64.7895 116.265 64.9291 116.473C65.0687 116.681 65.1433 116.926 65.1435 117.176C65.1436 117.343 65.1109 117.507 65.0472 117.661C64.9835 117.815 64.89 117.955 64.7722 118.072C64.6544 118.19 64.5145 118.284 64.3605 118.347C64.2065 118.411 64.0414 118.444 63.8747 118.444ZM76.537 138.186C76.286 138.186 76.0405 138.112 75.8317 137.973C75.6228 137.834 75.46 137.636 75.3637 137.405C75.2675 137.174 75.2421 136.919 75.2909 136.673C75.3396 136.427 75.4603 136.202 75.6376 136.024C75.815 135.847 76.041 135.726 76.2872 135.677C76.5333 135.628 76.7885 135.653 77.0205 135.749C77.2525 135.844 77.4508 136.006 77.5904 136.215C77.7301 136.423 77.8047 136.668 77.8049 136.918C77.8051 137.254 77.6717 137.576 77.4339 137.814C77.1961 138.052 76.8735 138.185 76.537 138.186ZM95.7759 150.862C95.525 150.862 95.2798 150.788 95.0712 150.649C94.8625 150.51 94.6999 150.312 94.6039 150.081C94.5079 149.849 94.4827 149.595 94.5316 149.349C94.5805 149.103 94.7013 148.878 94.8787 148.701C95.056 148.524 95.282 148.403 95.5281 148.354C95.7742 148.305 96.0293 148.33 96.2611 148.426C96.4929 148.521 96.6911 148.684 96.8306 148.892C96.9701 149.1 97.0446 149.345 97.0448 149.595C97.0448 149.762 97.0121 149.926 96.9484 150.08C96.8847 150.234 96.7912 150.373 96.6734 150.491C96.5555 150.609 96.4156 150.702 96.2616 150.766C96.1077 150.829 95.9426 150.862 95.7759 150.862ZM119.081 155.1C118.83 155.101 118.584 155.027 118.375 154.888C118.167 154.749 118.004 154.551 117.907 154.32C117.811 154.089 117.786 153.834 117.834 153.588C117.883 153.343 118.004 153.117 118.181 152.94C118.358 152.762 118.584 152.642 118.83 152.593C119.077 152.544 119.332 152.569 119.564 152.664C119.795 152.76 119.994 152.922 120.133 153.13C120.273 153.339 120.347 153.583 120.347 153.834C120.347 154 120.315 154.165 120.251 154.318C120.188 154.472 120.094 154.611 119.977 154.729C119.859 154.846 119.719 154.94 119.566 155.003C119.412 155.067 119.247 155.1 119.081 155.1ZM141.434 149.482C141.183 149.483 140.938 149.409 140.729 149.27C140.52 149.131 140.358 148.933 140.261 148.702C140.165 148.471 140.14 148.216 140.189 147.97C140.237 147.725 140.358 147.499 140.535 147.322C140.713 147.145 140.938 147.024 141.184 146.975C141.43 146.926 141.686 146.951 141.917 147.046C142.149 147.142 142.347 147.304 142.487 147.512C142.627 147.72 142.701 147.965 142.701 148.215C142.701 148.551 142.568 148.873 142.33 149.11C142.093 149.348 141.77 149.482 141.434 149.482ZM160.436 136.056C160.185 136.056 159.94 135.982 159.731 135.843C159.522 135.704 159.36 135.506 159.264 135.275C159.168 135.044 159.143 134.789 159.191 134.544C159.24 134.298 159.361 134.073 159.538 133.896C159.716 133.719 159.942 133.598 160.188 133.549C160.434 133.5 160.689 133.525 160.92 133.621C161.152 133.717 161.35 133.879 161.489 134.087C161.629 134.295 161.703 134.54 161.703 134.79C161.703 135.126 161.57 135.448 161.332 135.685C161.094 135.922 160.772 136.056 160.436 136.056ZM172.368 115.355C172.117 115.355 171.871 115.281 171.663 115.142C171.454 115.003 171.291 114.805 171.195 114.574C171.099 114.343 171.073 114.088 171.122 113.842C171.171 113.597 171.292 113.371 171.469 113.194C171.646 113.017 171.872 112.896 172.118 112.847C172.364 112.798 172.619 112.823 172.851 112.919C173.083 113.015 173.281 113.177 173.421 113.385C173.56 113.593 173.635 113.838 173.635 114.088C173.635 114.424 173.501 114.746 173.264 114.983C173.026 115.221 172.704 115.354 172.368 115.355Z" fill="#1A171B"/>
<path d="M118.389 170.769H118.373L115.208 170.737C105.822 170.476 96.5696 168.441 87.9425 164.74L85.025 163.418C77.6331 159.851 70.8802 155.094 65.0372 149.337L62.8164 147.048C56.1527 139.933 50.9584 131.576 47.5301 122.457L46.4765 119.442C44.0239 111.959 42.7747 104.135 42.7754 96.2621V94.9157H108.565L108.366 96.4359C108.202 97.6764 108.295 98.9373 108.639 100.141C108.982 101.344 109.57 102.464 110.365 103.431C111.16 104.399 112.146 105.193 113.261 105.765C114.376 106.336 115.597 106.674 116.848 106.756C118.099 106.838 119.353 106.662 120.534 106.241C121.714 105.819 122.795 105.16 123.71 104.305C124.625 103.45 125.354 102.416 125.853 101.268C126.351 100.12 126.608 98.8818 126.608 97.6306C126.605 97.23 126.575 96.8299 126.521 96.433L126.326 94.9157H192.108V96.2621C192.11 104.552 190.725 112.784 188.009 120.619L186.894 123.616C183.274 132.787 177.858 141.145 170.965 148.203L168.738 150.355L168.755 150.377C162.702 156.103 155.73 160.776 148.13 164.202L145.194 165.452C136.67 168.861 127.586 170.664 118.404 170.769H118.389ZM45.487 97.6087C45.6193 104.736 46.8142 111.805 49.0326 118.581L50.0669 121.54C53.3673 130.311 58.3641 138.348 64.7728 145.193L66.9539 147.441C72.5726 152.975 79.0646 157.548 86.1702 160.98L89.0337 162.276C97.3333 165.835 106.233 167.793 115.263 168.044L118.385 168.076C127.22 167.973 135.96 166.24 144.164 162.963L147.046 161.736C154.31 158.459 160.978 153.999 166.776 148.538L166.76 148.519L169.059 146.296C175.685 139.507 180.892 131.47 184.375 122.653L185.47 119.71C187.933 112.595 189.258 105.136 189.397 97.6087H129.307V97.6306C129.307 100.771 128.057 103.783 125.832 106.003C123.607 108.224 120.59 109.472 117.443 109.472C114.297 109.472 111.279 108.224 109.054 106.003C106.83 103.783 105.58 100.771 105.58 97.6306V97.6087H45.487ZM119.121 156.445C118.603 156.446 118.097 156.293 117.667 156.006C117.236 155.719 116.9 155.311 116.702 154.834C116.503 154.357 116.451 153.831 116.552 153.324C116.653 152.817 116.902 152.352 117.268 151.986C117.634 151.621 118.1 151.372 118.608 151.271C119.116 151.17 119.642 151.221 120.12 151.419C120.599 151.616 121.008 151.951 121.296 152.381C121.583 152.81 121.737 153.316 121.737 153.832C121.736 154.525 121.461 155.189 120.97 155.678C120.48 156.168 119.815 156.444 119.121 156.445ZM119.121 153.752C119.1 153.752 119.079 153.761 119.064 153.776C119.048 153.791 119.039 153.811 119.039 153.832C119.039 153.92 119.202 153.922 119.202 153.832C119.202 153.811 119.193 153.791 119.178 153.776C119.163 153.761 119.143 153.753 119.121 153.752ZM95.8166 152.207C95.2987 152.207 94.7925 152.054 94.3618 151.767C93.9312 151.48 93.5955 151.072 93.3971 150.595C93.1988 150.118 93.1467 149.592 93.2476 149.085C93.3484 148.578 93.5976 148.113 93.9636 147.747C94.3296 147.381 94.796 147.132 95.3038 147.031C95.8117 146.93 96.3381 146.982 96.8166 147.179C97.295 147.377 97.7041 147.712 97.9919 148.141C98.2798 148.571 98.4336 149.076 98.4338 149.593C98.4332 150.286 98.1573 150.95 97.6667 151.44C97.1761 151.93 96.5107 152.206 95.8166 152.207ZM95.8166 149.514C95.7954 149.514 95.775 149.522 95.7598 149.537C95.7447 149.552 95.736 149.572 95.7357 149.593C95.7357 149.682 95.8976 149.682 95.8976 149.593C95.8973 149.572 95.8886 149.552 95.8734 149.537C95.8582 149.522 95.8378 149.514 95.8166 149.514ZM141.474 150.827C140.956 150.828 140.45 150.674 140.02 150.387C139.589 150.1 139.254 149.693 139.056 149.215C138.857 148.738 138.805 148.213 138.906 147.706C139.007 147.199 139.256 146.734 139.622 146.368C139.988 146.003 140.455 145.754 140.962 145.653C141.47 145.552 141.996 145.604 142.474 145.801C142.953 145.999 143.362 146.333 143.649 146.763C143.937 147.192 144.091 147.697 144.091 148.214C144.09 148.907 143.814 149.571 143.324 150.061C142.833 150.551 142.168 150.826 141.474 150.827ZM141.474 148.134C141.453 148.134 141.432 148.142 141.417 148.157C141.402 148.172 141.393 148.193 141.393 148.214C141.392 148.303 141.554 148.304 141.554 148.214C141.554 148.203 141.552 148.193 141.548 148.183C141.544 148.174 141.538 148.165 141.531 148.157C141.523 148.15 141.514 148.144 141.505 148.14C141.495 148.136 141.485 148.134 141.474 148.134ZM76.5769 139.531C76.0591 139.531 75.5529 139.378 75.1223 139.091C74.6917 138.804 74.3561 138.396 74.1578 137.918C73.9596 137.441 73.9076 136.916 74.0085 136.409C74.1094 135.902 74.3586 135.436 74.7247 135.071C75.0907 134.705 75.5571 134.456 76.0649 134.355C76.5727 134.254 77.0991 134.306 77.5776 134.503C78.056 134.701 78.465 135.036 78.7529 135.465C79.0407 135.895 79.1944 136.4 79.1947 136.917C79.1941 137.61 78.9181 138.274 78.4274 138.764C77.9366 139.254 77.2711 139.53 76.5769 139.531ZM76.5769 136.838C76.5557 136.838 76.5352 136.846 76.52 136.861C76.5048 136.875 76.4961 136.896 76.4958 136.917C76.4958 137.007 76.6572 137.007 76.6579 136.917C76.6578 136.906 76.6556 136.896 76.6515 136.886C76.6474 136.877 76.6413 136.868 76.6338 136.86C76.6263 136.853 76.6174 136.847 76.6076 136.844C76.5978 136.84 76.5874 136.838 76.5769 136.838ZM160.476 137.4C159.959 137.4 159.453 137.247 159.022 136.96C158.592 136.673 158.256 136.266 158.058 135.788C157.86 135.311 157.808 134.786 157.909 134.279C158.01 133.772 158.259 133.307 158.625 132.941C158.991 132.576 159.457 132.327 159.965 132.226C160.473 132.125 160.999 132.177 161.477 132.375C161.955 132.573 162.364 132.907 162.652 133.337C162.939 133.766 163.093 134.272 163.093 134.788C163.092 135.481 162.816 136.144 162.325 136.634C161.835 137.124 161.17 137.399 160.476 137.4ZM160.476 134.707C160.455 134.707 160.434 134.716 160.419 134.731C160.404 134.746 160.395 134.767 160.395 134.788C160.395 134.877 160.556 134.878 160.557 134.788C160.557 134.767 160.548 134.746 160.533 134.731C160.518 134.716 160.498 134.707 160.476 134.707ZM63.9155 119.788C63.3977 119.788 62.8915 119.635 62.4609 119.348C62.0303 119.061 61.6947 118.653 61.4965 118.176C61.2982 117.698 61.2462 117.173 61.3471 116.666C61.448 116.159 61.6972 115.693 62.0633 115.328C62.4293 114.962 62.8957 114.713 63.4035 114.612C63.9113 114.511 64.4378 114.563 64.9162 114.761C65.3946 114.958 65.8036 115.293 66.0915 115.722C66.3793 116.152 66.5331 116.657 66.5333 117.174C66.5327 117.867 66.2568 118.531 65.766 119.021C65.2752 119.512 64.6097 119.787 63.9155 119.788ZM63.9155 117.095C63.8944 117.095 63.8741 117.103 63.8591 117.118C63.844 117.133 63.8354 117.153 63.8352 117.174C63.8352 117.265 63.9958 117.265 63.9958 117.174C63.9955 117.153 63.9869 117.133 63.9718 117.118C63.9568 117.103 63.9365 117.095 63.9155 117.095ZM172.408 116.7C171.891 116.7 171.384 116.547 170.954 116.26C170.523 115.973 170.188 115.565 169.989 115.088C169.791 114.61 169.739 114.085 169.84 113.578C169.941 113.071 170.19 112.606 170.556 112.24C170.922 111.875 171.388 111.626 171.896 111.525C172.404 111.424 172.93 111.476 173.408 111.673C173.887 111.871 174.296 112.206 174.583 112.635C174.871 113.065 175.025 113.57 175.025 114.087C175.024 114.779 174.748 115.443 174.257 115.933C173.767 116.422 173.102 116.698 172.408 116.7ZM172.408 114.007C172.398 114.007 172.387 114.008 172.377 114.012C172.367 114.016 172.358 114.022 172.351 114.03C172.343 114.037 172.337 114.046 172.333 114.056C172.329 114.066 172.326 114.076 172.327 114.087C172.327 114.175 172.486 114.179 172.486 114.087C172.487 114.066 172.479 114.046 172.464 114.031C172.449 114.016 172.429 114.007 172.408 114.007Z" fill="white"/>
<path d="M117.708 109.717C114.823 109.801 112.022 108.741 109.918 106.769C107.814 104.797 106.579 102.073 106.482 99.1935C106.482 93.3311 111.628 93.3311 114.702 93.3311C115.148 93.3311 115.608 93.3361 116.08 93.3403C117.051 93.3503 118.094 93.3503 119.076 93.3403C119.553 93.3361 120.021 93.3311 120.475 93.3311C123.639 93.3311 128.935 93.3311 128.935 99.1935C128.838 102.073 127.603 104.797 125.499 106.769C123.395 108.741 120.593 109.801 117.708 109.717ZM114.702 96.0241C110.213 96.0241 109.181 96.6161 109.181 99.1935C109.359 101.328 110.335 103.318 111.914 104.769C113.494 106.219 115.562 107.024 117.708 107.024C119.855 107.024 121.923 106.219 123.502 104.769C125.082 103.318 126.057 101.328 126.236 99.1935C126.236 96.6466 125.105 96.0241 120.475 96.0241C120.03 96.0241 119.571 96.029 119.103 96.0332C118.103 96.0431 117.042 96.0431 116.052 96.0332C115.59 96.029 115.139 96.0241 114.702 96.0241Z" fill="white"/>
<path d="M97.7752 149.579C97.7835 149.958 97.6783 150.332 97.4731 150.651C97.2679 150.971 96.972 151.222 96.6231 151.373C96.2742 151.524 95.8882 151.568 95.5143 151.499C95.1404 151.43 94.7955 151.251 94.5238 150.986C94.252 150.72 94.0656 150.38 93.9884 150.008C93.9111 149.637 93.9466 149.251 94.0902 148.899C94.2338 148.548 94.4791 148.247 94.7947 148.035C95.1103 147.824 95.4819 147.711 95.8621 147.711C96.3639 147.705 96.8473 147.899 97.206 148.25C97.5647 148.6 97.7694 149.078 97.7752 149.579Z" fill="white"/>
<path d="M121.078 153.817C121.086 154.196 120.981 154.57 120.776 154.889C120.571 155.209 120.275 155.46 119.926 155.611C119.577 155.762 119.191 155.806 118.817 155.737C118.443 155.668 118.099 155.489 117.827 155.224C117.555 154.958 117.369 154.618 117.291 154.246C117.214 153.875 117.25 153.489 117.393 153.137C117.537 152.786 117.782 152.485 118.098 152.273C118.413 152.062 118.785 151.949 119.165 151.949C119.667 151.943 120.15 152.137 120.509 152.487C120.868 152.838 121.072 153.316 121.078 153.817Z" fill="white"/>
<path d="M162.433 134.773C162.442 135.152 162.337 135.525 162.131 135.845C161.926 136.165 161.63 136.416 161.282 136.567C160.933 136.718 160.547 136.762 160.173 136.693C159.799 136.624 159.454 136.446 159.182 136.18C158.91 135.915 158.723 135.575 158.646 135.203C158.569 134.831 158.604 134.445 158.748 134.094C158.891 133.742 159.136 133.441 159.452 133.229C159.767 133.018 160.139 132.904 160.519 132.904C161.021 132.899 161.505 133.093 161.864 133.443C162.223 133.793 162.428 134.272 162.433 134.773Z" fill="white"/>
<path d="M174.365 114.071C174.374 114.451 174.268 114.824 174.063 115.144C173.858 115.463 173.562 115.714 173.213 115.865C172.864 116.016 172.478 116.06 172.104 115.991C171.731 115.922 171.386 115.744 171.114 115.478C170.842 115.213 170.656 114.873 170.578 114.501C170.501 114.129 170.537 113.743 170.68 113.392C170.824 113.04 171.069 112.74 171.385 112.528C171.7 112.316 172.072 112.203 172.452 112.203C172.954 112.198 173.438 112.391 173.796 112.742C174.155 113.092 174.36 113.57 174.365 114.071Z" fill="white"/>
<path d="M63.354 114.617L47.9072 120.04L48.4029 121.447L63.8497 116.023L63.354 114.617Z" fill="white"/>
<path d="M75.1136 134.761L62.6067 144.706L63.4711 145.789L75.978 135.844L75.1136 134.761Z" fill="white"/>
<path d="M93.8673 147.878L85.3052 161.809L86.4879 162.534L95.05 148.602L93.8673 147.878Z" fill="white"/>
<path d="M116.592 153.639L115.399 169.464L116.859 169.574L118.052 153.749L116.592 153.639Z" fill="white"/>
<path d="M140.369 148.14L138.915 148.6L143.861 164.181L145.315 163.721L140.369 148.14Z" fill="white"/>
<path d="M159.568 135.329L158.392 136.329L169.013 148.768L170.189 147.768L159.568 135.329Z" fill="white"/>
<path d="M171.674 114.958L170.95 116.242L185.219 124.258L185.943 122.973L171.674 114.958Z" fill="white"/>
<path d="M66.9223 116.881C66.8757 116.393 66.7125 115.923 66.4462 115.511C66.18 115.1 65.8187 114.758 65.3926 114.514C64.9664 114.271 64.488 114.133 63.9974 114.112C63.5068 114.092 63.0185 114.189 62.5734 114.396L48.0798 119.499L48.9963 121.745L60.8777 117.559L60.9181 117.676C60.9898 118.122 61.1618 118.546 61.4211 118.916C61.4546 118.978 61.4936 119.036 61.5376 119.091C61.9288 119.582 62.4635 119.94 63.0677 120.115C63.6718 120.29 64.3155 120.272 64.9093 120.065C65.5032 119.858 66.0178 119.472 66.3818 118.96C66.7458 118.448 66.9412 117.836 66.9408 117.208C66.9408 117.099 66.9346 116.989 66.9223 116.881Z" fill="white"/>
<path d="M79.2109 135.567C78.8882 134.874 78.3171 134.328 77.6104 134.036C76.9037 133.743 76.1128 133.726 75.394 133.988C74.9752 134.139 74.5942 134.379 74.2772 134.692L62.3574 144.376L63.9793 146.182L73.7494 138.241C73.7721 138.268 73.7999 138.303 73.8275 138.338C74.0455 138.733 74.3506 139.074 74.7198 139.335C74.7723 139.382 74.8289 139.424 74.8889 139.46C75.4468 139.809 76.1034 139.966 76.7592 139.909C77.4149 139.852 78.0341 139.582 78.5227 139.142C79.0114 138.702 79.343 138.115 79.4671 137.47C79.5913 136.824 79.5014 136.156 79.2109 135.567Z" fill="white"/>
<path d="M98.0876 147.406C97.7458 147.054 97.3243 146.789 96.8587 146.634C96.3931 146.478 95.8969 146.436 95.4117 146.512C94.9266 146.587 94.4667 146.778 94.0707 147.068C93.6747 147.358 93.3542 147.738 93.1361 148.177L85.012 161.199L87.1332 162.381L93.7918 151.705C93.8216 151.723 93.8601 151.747 93.897 151.771C94.2321 152.075 94.6316 152.298 95.0656 152.425C95.1303 152.452 95.1973 152.473 95.2659 152.488C95.8791 152.628 96.5208 152.574 97.102 152.334C97.6831 152.094 98.1749 151.679 98.5092 151.147C98.8435 150.615 99.0036 149.993 98.9674 149.366C98.9311 148.739 98.7004 148.139 98.3071 147.649C98.2384 147.564 98.1652 147.483 98.0876 147.406Z" fill="white"/>
<path d="M120.063 150.874C119.597 150.72 119.101 150.68 118.616 150.758C118.131 150.835 117.672 151.028 117.277 151.319C116.882 151.61 116.563 151.992 116.347 152.432C116.13 152.872 116.023 153.357 116.034 153.847L114.879 169.144L117.308 169.211L118.252 156.671C118.287 156.674 118.333 156.677 118.376 156.681C118.814 156.795 119.272 156.808 119.716 156.72C119.786 156.715 119.855 156.702 119.923 156.683C120.531 156.524 121.075 156.18 121.479 155.698C121.882 155.216 122.126 154.621 122.175 153.995C122.224 153.369 122.077 152.743 121.754 152.205C121.431 151.666 120.948 151.241 120.371 150.988C120.271 150.945 120.168 150.907 120.063 150.874Z" fill="white"/>
<path d="M141.282 145.136C140.791 145.165 140.316 145.312 139.894 145.562C139.472 145.813 139.117 146.161 138.858 146.577C138.599 146.994 138.443 147.466 138.405 147.954C138.366 148.443 138.446 148.933 138.637 149.385L143.223 164.026L145.505 163.193L141.744 151.191C141.777 151.18 141.821 151.167 141.862 151.154C142.311 151.099 142.741 150.942 143.122 150.697C143.184 150.666 143.244 150.629 143.3 150.587C143.806 150.215 144.184 149.695 144.381 149.098C144.578 148.502 144.584 147.859 144.399 147.259C144.213 146.659 143.845 146.131 143.345 145.75C142.846 145.368 142.239 145.151 141.61 145.129C141.501 145.125 141.391 145.128 141.282 145.136Z" fill="white"/>
<path d="M159.078 132.146C158.639 132.364 158.258 132.684 157.969 133.08C157.679 133.475 157.488 133.935 157.413 134.419C157.338 134.903 157.381 135.398 157.537 135.863C157.693 136.327 157.959 136.748 158.312 137.088L168.276 148.768L170.049 147.109L161.879 137.535C161.905 137.512 161.941 137.484 161.974 137.456C162.366 137.229 162.7 136.917 162.953 136.542C162.999 136.49 163.039 136.432 163.074 136.371C163.412 135.807 163.557 135.148 163.486 134.494C163.414 133.84 163.131 133.227 162.679 132.749C162.226 132.271 161.63 131.953 160.98 131.844C160.33 131.735 159.662 131.841 159.078 132.146Z" fill="white"/>
<path d="M170.107 112.018C169.768 112.372 169.519 112.803 169.382 113.273C169.244 113.743 169.221 114.24 169.315 114.721C169.41 115.201 169.618 115.653 169.923 116.037C170.228 116.42 170.621 116.726 171.069 116.927L184.416 124.531L185.519 122.37L174.575 116.137C174.592 116.107 174.616 116.068 174.638 116.03C174.929 115.685 175.137 115.277 175.248 114.839C175.273 114.774 175.291 114.707 175.303 114.638C175.429 113.992 175.34 113.324 175.051 112.733C174.761 112.143 174.286 111.663 173.698 111.366C173.11 111.07 172.441 110.973 171.793 111.091C171.144 111.208 170.553 111.534 170.107 112.018Z" fill="white"/>
<path d="M219.967 15.0807H15.1108V95.4027H219.967V15.0807Z" fill="#FFDD00"/>
<path d="M56.3143 83.9816H45.8047L55.3034 56.7166H66.2805L76.0243 83.9816H65.5197L64.6124 80.5796H57.1191L56.3143 83.9816ZM62.8706 74.1038L61.7077 69.2973C61.4249 68.143 61.2381 66.9489 61.0569 65.791H60.7017L58.883 74.1038H62.8706Z" fill="#1A171B"/>
<path d="M81.3948 56.7166H91.6062L95.3784 71.0302H95.6249C95.7857 69.8147 96.0164 68.6094 96.3161 67.4204L99.3893 56.7166H109.51L113.996 83.9823H104.396L103.061 69.0491H102.879C102.709 69.9625 102.492 70.8666 102.228 71.7576L98.2774 83.9823H92.4714L88.9208 72.444C88.6108 71.3343 88.4079 70.1974 88.3149 69.0491H87.9753C87.9056 70.1353 87.8432 71.2542 87.7281 72.3363L86.5658 83.9823H76.9727L81.3948 56.7166Z" fill="#1A171B"/>
<path d="M117.183 56.7172H135.543V64.1608H127.17V66.7702H134.82V73.8595H127.17V76.53H135.833V83.9823H117.183V56.7172Z" fill="#1A171B"/>
<path d="M139.99 56.7174H150.102C159.275 56.7174 166.304 60.7263 166.304 70.7473C166.304 78.8354 160.571 83.9816 152.57 83.9816H139.99V56.7174ZM149.92 75.8085H150.542C153.837 75.8085 156.377 74.2875 156.377 70.7027C156.377 66.8781 154.161 65.2515 150.542 65.2515H149.92V75.8085Z" fill="#1A171B"/>
<path d="M179.882 56.7166H169.963V83.9823H179.882V56.7166Z" fill="#1A171B"/>
<path d="M192.524 83.9816H182.029L191.512 56.7166H202.496L212.237 83.9816H201.735L200.824 80.5796H193.326L192.524 83.9816ZM199.09 74.1038L197.93 69.2973C197.651 68.143 197.466 66.9489 197.271 65.791H196.916L195.1 74.1038H199.09Z" fill="#1A171B"/>
<path d="M169.214 48.2931C162.499 41.3724 154.46 35.869 145.573 32.1097C136.685 28.3504 127.132 26.4118 117.48 26.4091C107.827 26.4064 98.2727 28.3396 89.3834 32.0939C80.4941 35.8482 72.4513 41.3471 65.7325 48.264L62.2927 48.2562L63.9167 46.5071C70.8715 39.3479 79.1967 33.6564 88.3979 29.7706C97.599 25.8847 107.489 23.8837 117.48 23.8863C127.471 23.889 137.359 25.8952 146.558 29.7859C155.758 33.6766 164.08 39.3725 171.031 46.5354L172.8 48.2931H169.214Z" fill="#1A171B"/>
<path d="M25.8854 73.718L26.3955 74.1201C28.1262 75.6098 30.3013 76.4874 32.583 76.6166C33.5598 76.6166 35.1148 76.221 35.1148 74.9829C35.1148 73.7528 33.8163 73.6499 32.909 73.472L30.9214 73.1018C27.0404 72.4156 23.779 70.1459 23.779 65.8796C23.779 59.4003 29.6867 55.7806 35.6349 55.7806C38.6878 55.7508 41.6874 56.5789 44.2911 58.1701L41.6115 65.152C39.9436 63.8977 37.9331 63.1791 35.8466 63.0916C34.9714 63.0916 33.7126 63.4247 33.7126 64.5408C33.7126 65.5441 34.9373 65.6924 35.6988 65.8796L37.9388 66.3823C42.1471 67.3211 45.1983 69.5716 45.1983 74.1895C45.1983 80.6979 39.2501 83.9197 33.3503 83.9197C29.7032 83.8779 26.1118 83.0212 22.8398 81.4127L25.8854 73.718Z" fill="#1A171B"/>
<path d="M220.641 96.0757H14.4346V14.4072H220.641V96.0757ZM15.7836 94.7293H219.292V15.7536H15.7836V94.7293Z" fill="#1A171B"/>
<path d="M231.233 26.546C230.025 26.5461 228.844 26.1885 227.839 25.5185C226.834 24.8484 226.051 23.8961 225.588 22.7818C225.126 21.6675 225.005 20.4414 225.241 19.2584C225.476 18.0755 226.058 16.9889 226.913 16.136C227.767 15.2831 228.856 14.7022 230.041 14.4669C231.226 14.2315 232.455 14.3522 233.571 14.8137C234.687 15.2752 235.642 16.0568 236.313 17.0596C236.985 18.0624 237.343 19.2414 237.343 20.4475C237.341 22.0643 236.697 23.6143 235.552 24.7576C234.406 25.9008 232.853 26.544 231.233 26.546ZM231.233 15.3125C230.216 15.3125 229.221 15.6136 228.375 16.1779C227.529 16.7421 226.869 17.5441 226.48 18.4825C226.09 19.4209 225.988 20.4534 226.187 21.4496C226.385 22.4458 226.875 23.3608 227.595 24.079C228.315 24.7972 229.231 25.2863 230.229 25.4845C231.228 25.6826 232.262 25.5809 233.202 25.1922C234.142 24.8035 234.946 24.1452 235.511 23.3007C236.077 22.4561 236.378 21.4632 236.378 20.4475C236.377 19.0862 235.834 17.781 234.87 16.8183C233.905 15.8557 232.597 15.3142 231.233 15.3125Z" fill="#1A171B"/>
<path d="M228.889 23.8275V16.8901H231.221C231.655 16.8647 232.09 16.9284 232.499 17.0774C232.782 17.2188 233.008 17.4534 233.138 17.7417C233.303 18.0825 233.385 18.4569 233.378 18.835C233.396 19.2922 233.269 19.7435 233.015 20.1241C232.886 20.2978 232.723 20.444 232.537 20.5541C232.35 20.6643 232.144 20.7363 231.929 20.7658C232.155 20.9288 232.355 21.1251 232.522 21.3479C232.763 21.7058 232.973 22.0824 233.153 22.4739L233.823 23.8275H232.498L231.696 22.3172C231.522 21.9663 231.327 21.6261 231.112 21.2983C231.028 21.1749 230.913 21.0753 230.779 21.009C230.6 20.9474 230.411 20.9209 230.222 20.931H229.998V23.8275H228.889ZM229.998 19.8242H230.817C231.151 19.8449 231.487 19.8162 231.813 19.7391C231.948 19.6795 232.057 19.5755 232.123 19.4448C232.204 19.2835 232.242 19.1045 232.235 18.9244C232.245 18.7254 232.193 18.5283 232.088 18.3593C232.04 18.2888 231.978 18.2284 231.906 18.1816C231.835 18.1349 231.755 18.1028 231.671 18.0871C231.402 18.0642 231.131 18.0561 230.862 18.0629H229.998V19.8242Z" fill="#1A171B"/>
</svg>
